<svg xmlns="http://www.w3.org/2000/svg" width="121.649" height="35.178" viewBox="0 0 121.649 35.178">
  <g id="apple-itunes" transform="translate(-7104.333 -7172.338)">
    <path id="Path_10124" data-name="Path 10124" d="M7134.569,7202.866a25.129,25.129,0,0,1-2.285,4.267c-1.483,2.261-3.577,5.073-6.169,5.1-2.3.021-2.9-1.5-6.024-1.483s-3.778,1.509-6.081,1.487c-2.594-.023-4.576-2.564-6.062-4.823-4.15-6.318-4.585-13.732-2.026-17.673a9.189,9.189,0,0,1,7.391-4.439c2.748,0,4.475,1.506,6.746,1.506,2.2,0,3.547-1.509,6.724-1.509a8.985,8.985,0,0,1,6.76,3.566A7.731,7.731,0,0,0,7134.569,7202.866Z" transform="translate(0 -4.72)" fill="#9ea4c4"/>
    <path id="Path_10125" data-name="Path 10125" d="M7132.695,7178.048a7.7,7.7,0,0,0,1.713-5.71,8.327,8.327,0,0,0-5.379,2.894,7.166,7.166,0,0,0-1.759,5.571A7.038,7.038,0,0,0,7132.695,7178.048Z" transform="translate(-8.324 0)" fill="#9ea4c4"/>
    <g id="Group_3029" data-name="Group 3029" transform="translate(7140.189 7185.752)">
      <path id="Path_10126" data-name="Path 10126" d="M7165.645,7195.785a2.328,2.328,0,0,1-2.5,2.318,2.335,2.335,0,1,1,.03-4.667A2.327,2.327,0,0,1,7165.645,7195.785Zm-4.792,19.076v-14.926h4.639v14.926Zm12.483-16.667h-5.522v-3.906h15.808v3.906h-5.615v16.664h-4.672Zm25.025,11.876c0,1.952.062,3.54.121,4.792h-4.028l-.214-2.105h-.093a5.323,5.323,0,0,1-4.67,2.443c-3.021,0-5.249-1.894-5.249-6.5v-8.758h4.669v8.027c0,2.167.7,3.479,2.32,3.479a2.494,2.494,0,0,0,2.319-1.617,2.623,2.623,0,0,0,.151-1.007v-8.881h4.672v10.132h0Zm3.719-5.372c0-1.863-.061-3.45-.121-4.76h4.028l.214,2.045h.093a5.461,5.461,0,0,1,4.608-2.38c3.053,0,5.339,2.014,5.339,6.409v8.851H7211.6v-8.271c0-1.922-.672-3.235-2.348-3.235a2.476,2.476,0,0,0-2.35,1.737,3.326,3.326,0,0,0-.183,1.16v8.606h-4.64V7204.7h0Zm21.458,4.183c.152,1.923,2.044,2.839,4.212,2.839a13.163,13.163,0,0,0,4.12-.609l.61,3.142a14.71,14.71,0,0,1-5.4.945c-5.068,0-7.966-2.96-7.966-7.631,0-3.784,2.35-7.963,7.539-7.963,4.822,0,6.653,3.752,6.653,7.447a11.245,11.245,0,0,1-.151,1.83Zm5.462-3.175c0-1.128-.489-3.021-2.625-3.021a3.047,3.047,0,0,0-2.87,3.021Zm7.05,5.1a9.094,9.094,0,0,0,4,1.127c1.4,0,1.985-.489,1.985-1.251s-.458-1.129-2.2-1.709c-3.084-1.037-4.274-2.715-4.243-4.456,0-2.808,2.381-4.915,6.075-4.915a10.015,10.015,0,0,1,4.212.855l-.825,3.206a7.319,7.319,0,0,0-3.234-.856c-1.128,0-1.771.458-1.771,1.221,0,.7.58,1.069,2.411,1.709,2.838.976,4.028,2.412,4.06,4.607,0,2.779-2.2,4.854-6.471,4.854a10.542,10.542,0,0,1-4.823-1.07Z" transform="translate(-7160.729 -7193.437)" fill="#9ea4c4"/>
    </g>
  </g>
</svg>
