<svg xmlns="http://www.w3.org/2000/svg" width="103.516" height="94.103" viewBox="0 0 103.516 94.103">
  <g id="email" transform="translate(0 -0.5)">
    <path id="Union_5" data-name="Union 5" d="M85.411,15.949H0V4.675A4.676,4.676,0,0,1,4.675,0H86.4a4.672,4.672,0,0,1,4.675,4.674V15.949Z" transform="translate(12.442 4.097)" fill="#14c4bb"/>
    <path id="Union_8" data-name="Union 8" d="M2.894,5.861h-.2l-.018,0-.017,0-.019,0-.018,0-.018,0-.018,0-.018,0-.019,0-.017,0-.02,0-.016,0-.02,0-.015,0-.02,0-.016,0-.02,0-.014,0-.021,0-.013,0-.022,0-.012,0-.023-.005-.01,0-.025-.006-.009,0-.026-.006-.008,0-.028-.007h0l-.03-.008h0L2.12,5.748h0a2.932,2.932,0,1,1,.926.112l-.113,0Z" transform="translate(18.877 8.099)" fill="#f9c663"/>
    <path id="Union_7" data-name="Union 7" d="M2.893,5.861h-.2l-.022,0H2.658l-.023,0-.015,0-.022,0-.014,0-.022,0-.015,0-.021,0-.016,0-.02,0-.017,0-.019,0-.017,0-.019,0-.017,0-.017,0-.019,0-.016,0-.02,0-.014,0-.022,0-.012,0-.024-.006-.01,0-.026-.006-.007,0-.029-.007h0A2.931,2.931,0,1,1,5.862,2.932h0A2.93,2.93,0,0,1,2.931,5.862Z" transform="translate(30.196 8.099)" fill="#f9c663"/>
    <path id="Union_6" data-name="Union 6" d="M2.893,5.861H2.709l-.02,0H2.673l-.02,0-.016,0-.022,0-.014,0-.022,0-.014,0-.024,0H2.53l-.026,0H2.5l-.028,0H2.46l-.029,0H2.426l-.032-.006h0a2.931,2.931,0,1,1,3.469-2.88h0A2.928,2.928,0,0,1,2.931,5.862Z" transform="translate(41.515 8.099)" fill="#f9c663"/>
    <path id="Union_4" data-name="Union 4" d="M2.626,33.776A2.626,2.626,0,0,1,0,31.151V2.626A2.618,2.618,0,0,1,.854.689h0A2.612,2.612,0,0,1,2.627,0H46.37l.024,0H46.4l.026,0h.006l.028,0h0l.031,0h0a2.617,2.617,0,0,1,1.471.672h0a2.618,2.618,0,0,1,.853,1.937V31.151A2.626,2.626,0,0,1,46.2,33.776Z" transform="translate(46.402 38.667)" fill="#f9c663"/>
    <path id="Path_6591" data-name="Path 6591" d="M260.879,168.419a1.544,1.544,0,0,0-.181-.164,4.121,4.121,0,0,0-2.7-1h-9.77a1.515,1.515,0,1,0,0,3.029h8.11l-20.124,16.262L216.093,170.28h22.848a1.515,1.515,0,1,0,0-3.029H214.433a4.122,4.122,0,0,0-2.7,1,1.5,1.5,0,0,0-.182.166,4.129,4.129,0,0,0-1.263,2.971v28.525a4.145,4.145,0,0,0,4.141,4.141H258a4.146,4.146,0,0,0,4.141-4.141V171.391a4.127,4.127,0,0,0-1.265-2.972Zm-1.766,31.5a1.091,1.091,0,0,1-.035.269L244.51,183.737l14.6-11.8Zm-22.9-10.2a2.521,2.521,0,0,0,1.587-.557l4.347-3.512,13.626,15.385H216.659l13.626-15.385,4.346,3.512a2.523,2.523,0,0,0,1.587.557Zm-22.9,10.2V171.937l14.6,11.8-14.569,16.449a1.131,1.131,0,0,1-.035-.269Zm0,0" transform="translate(-168.009 -133.222)" fill="#2b376f"/>
    <path id="Path_6592" data-name="Path 6592" d="M83.024,25.586a4.446,4.446,0,1,0,4.446,4.446A4.451,4.451,0,0,0,83.024,25.586Zm0,5.862a1.416,1.416,0,1,1,1.415-1.416A1.418,1.418,0,0,1,83.024,31.448Zm0,0" transform="translate(-62.778 -20.042)" fill="#2b376f"/>
    <path id="Path_6593" data-name="Path 6593" d="M139.316,25.586a4.446,4.446,0,1,0,4.446,4.446A4.451,4.451,0,0,0,139.316,25.586Zm0,5.862a1.416,1.416,0,1,1,1.416-1.416A1.417,1.417,0,0,1,139.316,31.448Zm0,0" transform="translate(-107.752 -20.042)" fill="#2b376f"/>
    <path id="Path_6594" data-name="Path 6594" d="M195.609,25.586a4.446,4.446,0,1,0,4.446,4.446A4.451,4.451,0,0,0,195.609,25.586Zm0,5.862a1.416,1.416,0,1,1,1.416-1.416A1.418,1.418,0,0,1,195.609,31.448Zm0,0" transform="translate(-152.726 -20.042)" fill="#2b376f"/>
    <path id="Path_6595" data-name="Path 6595" d="M98.011.626A6.193,6.193,0,0,0,96.765.5H15.041A6.184,6.184,0,0,0,8.852,6.69V46.262H1.523a1.515,1.515,0,1,0,0,3.03H8.852V74.011a1.515,1.515,0,1,0,3.029,0V49.291h9.15a1.515,1.515,0,1,0,0-3.029h-9.15V19.48H99.925V88.413a3.163,3.163,0,0,1-3.16,3.161H15.041a3.164,3.164,0,0,1-3.16-3.161V83.426a1.515,1.515,0,1,0-3.029,0v4.987a6.2,6.2,0,0,0,6.189,6.19H96.765a6.2,6.2,0,0,0,6.19-6.19V6.69A6.2,6.2,0,0,0,98.011.626Zm1.915,15.823H11.881V6.69a3.166,3.166,0,0,1,2.838-3.144,3.129,3.129,0,0,1,.323-.016H96.765c.109,0,.217.005.323.016A3.166,3.166,0,0,1,99.926,6.69Zm0,0" transform="translate(-0.007)" fill="#2b376f"/>
    <path id="Path_6596" data-name="Path 6596" d="M117.232,179.874a1.514,1.514,0,0,0-1.514-1.514H101.811a1.515,1.515,0,0,0,0,3.029h13.907A1.514,1.514,0,0,0,117.232,179.874Zm0,0" transform="translate(-80.13 -142.097)" fill="#2b376f"/>
    <path id="Path_6597" data-name="Path 6597" d="M64.476,178.359a1.515,1.515,0,1,0,0,3.029h2.963a1.515,1.515,0,0,0,0-3.029Zm0,0" transform="translate(-50.301 -142.097)" fill="#2b376f"/>
    <path id="Path_6598" data-name="Path 6598" d="M152.375,324.121h-4.764a1.515,1.515,0,0,0,0,3.03h4.764a1.515,1.515,0,1,0,0-3.03Zm0,0" transform="translate(-116.721 -258.55)" fill="#2b376f"/>
    <path id="Path_6599" data-name="Path 6599" d="M7.154,275.512H1.515a1.515,1.515,0,1,0,0,3.029H7.154a1.515,1.515,0,0,0,0-3.029Zm0,0" transform="translate(0 -219.715)" fill="#2b376f"/>
    <path id="Path_6600" data-name="Path 6600" d="M5.523,324.121H1.515a1.515,1.515,0,1,0,0,3.03H5.523a1.515,1.515,0,0,0,0-3.03Zm0,0" transform="translate(0 -258.55)" fill="#2b376f"/>
    <path id="Path_6601" data-name="Path 6601" d="M72.434,277.027a1.514,1.514,0,0,0,1.515,1.514H93.457a1.515,1.515,0,0,0,0-3.029H73.949A1.514,1.514,0,0,0,72.434,277.027Zm0,0" transform="translate(-57.869 -219.715)" fill="#2b376f"/>
    <path id="Path_6602" data-name="Path 6602" d="M62.961,325.636a1.515,1.515,0,0,0,1.515,1.515H75.438a1.515,1.515,0,0,0,0-3.03H64.476A1.515,1.515,0,0,0,62.961,325.636Zm0,0" transform="translate(-50.301 -258.55)" fill="#2b376f"/>
    <path id="Path_6603" data-name="Path 6603" d="M1.523,181.389H5.907a1.515,1.515,0,1,0,0-3.029H1.523a1.515,1.515,0,1,0,0,3.029Zm0,0" transform="translate(-0.006 -142.097)" fill="#2b376f"/>
    <path id="Path_6604" data-name="Path 6604" d="M124.25,231.119h9.395a1.515,1.515,0,0,0,0-3.029H124.25a1.515,1.515,0,1,0,0,3.029Zm0,0" transform="translate(-98.056 -181.828)" fill="#2b376f"/>
  </g>
</svg>
