<svg xmlns="http://www.w3.org/2000/svg" width="95.089" height="89.21" viewBox="0 0 95.089 89.21">
  <g id="get-money" transform="translate(1.166 -0.5)">
    <path id="Path_6569" data-name="Path 6569" d="M221.66,10.5a25.68,25.68,0,1,1-25.679,25.679A25.708,25.708,0,0,1,221.66,10.5Zm0,0" transform="translate(-157.03 -6.166)" fill="#f9c663"/>
    <path id="Path_6570" data-name="Path 6570" d="M25.775,339.817H10V310.469H25.775Zm0,0" transform="translate(-11.166 -250.107)" fill="#14c4bb"/>
    <path id="Path_6571" data-name="Path 6571" d="M327.8,44.164a1.834,1.834,0,1,0-1.834-1.834A1.835,1.835,0,0,0,327.8,44.164Zm0,0" transform="translate(-266.172 -32.659)" fill="#2b376f"/>
    <path id="Path_6572" data-name="Path 6572" d="M92.966,286.044A7.517,7.517,0,0,0,82.6,283.2L63.367,293.942a7.348,7.348,0,0,0-7.239-6.145H49.5a5.7,5.7,0,0,1-4.274-2.2,14.66,14.66,0,0,0-22.054-.282,7.49,7.49,0,0,1-3.726,2.249v-1.6a1.835,1.835,0,0,0-1.834-1.834H1.834A1.835,1.835,0,0,0,0,285.962v29.348a1.835,1.835,0,0,0,1.834,1.834H17.609a1.835,1.835,0,0,0,1.834-1.834v-1.369s38.469,3.2,38.52,3.2a1.834,1.834,0,0,0,1.012-.3l13.869-9.169a1.835,1.835,0,0,0-2.024-3.061l-13.339,8.82-38.038-3.169v-18.95a11.157,11.157,0,0,0,6.454-3.543,10.992,10.992,0,0,1,16.536.213,9.3,9.3,0,0,0,7.065,3.484h6.631a3.669,3.669,0,1,1,0,7.337H39.619a1.834,1.834,0,0,0,0,3.669H56.128a7.315,7.315,0,0,0,6.481-3.9L84.44,286.374a3.853,3.853,0,0,1,4.138,6.5l-5.521,3.65a1.834,1.834,0,1,0,2.023,3.061l5.559-3.676a7.487,7.487,0,0,0,2.327-9.86ZM15.774,313.476H3.668V287.8H15.774Zm0,0" transform="translate(0 -228.6)" fill="#2b376f"/>
    <path id="Path_6573" data-name="Path 6573" d="M213.495.5a27.514,27.514,0,1,0,27.515,27.514A27.545,27.545,0,0,0,213.495.5Zm0,51.36A23.846,23.846,0,1,1,237.34,28.014,23.872,23.872,0,0,1,213.495,51.86Zm0,0" transform="translate(-151.864)" fill="#2b376f"/>
    <path id="Path_6574" data-name="Path 6574" d="M254.066,48.639a1.834,1.834,0,1,0-1.443,3.373,16.508,16.508,0,1,1-12.938,0,1.834,1.834,0,0,0-1.443-3.373,20.177,20.177,0,1,0,15.824,0Zm0,0" transform="translate(-184.523 -39.187)" fill="#2b376f"/>
    <path id="Path_6575" data-name="Path 6575" d="M311.95,94.166a1.834,1.834,0,1,1,0,3.668,3.317,3.317,0,0,1-2.381-1.387,1.834,1.834,0,0,0-2.808,2.36,7.6,7.6,0,0,0,3.356,2.389v2.141a1.834,1.834,0,0,0,3.668,0v-2.15A5.5,5.5,0,0,0,311.95,90.5a1.834,1.834,0,0,1,0-3.668,2.947,2.947,0,0,1,1.984.959,1.834,1.834,0,1,0,2.551-2.636,7.085,7.085,0,0,0-2.7-1.688V81.326a1.834,1.834,0,1,0-3.668,0v2.15a5.5,5.5,0,0,0,1.834,10.69Zm0,0" transform="translate(-250.136 -64.501)" fill="#2b376f"/>
    <path id="Path_6576" data-name="Path 6576" d="M418.626,390.3a1.834,1.834,0,1,0-1.834,1.834A1.835,1.835,0,0,0,418.626,390.3Zm0,0" transform="translate(-338.836 -316.792)"/>
  </g>
</svg>
