<svg xmlns="http://www.w3.org/2000/svg" width="202.942" height="34.178" viewBox="0 0 202.942 34.178">
  <g id="Group_3045" data-name="Group 3045" transform="translate(-521.559 -551.861)">
    <path id="PlayStation_logo" d="M43.5,26.331a8.026,8.026,0,0,1-2.89,1.811L25.344,33.625V29.581l11.235-4c1.275-.457,1.471-1.1.434-1.442a7.578,7.578,0,0,0-4.183.216l-7.486,2.637v-4.2l.431-.146a25.682,25.682,0,0,1,5.205-1.1A22.205,22.205,0,0,1,40.67,22.7c3.3,1.041,3.666,2.576,2.829,3.633ZM26.8,19.445V9.1c0-1.215-.224-2.333-1.364-2.649-.873-.28-1.414.531-1.414,1.744V34.1L17.035,31.88V1a83.982,83.982,0,0,1,9.622,2.639C32.572,5.67,34.577,8.2,34.577,13.892c0,5.551-3.427,7.655-7.78,5.553ZM4.219,29.159c-3.383-.953-3.946-2.938-2.4-4.081a16.572,16.572,0,0,1,3.848-1.851l10.015-3.561v4.06L8.471,26.3c-1.273.457-1.469,1.1-.434,1.442a7.6,7.6,0,0,0,4.184-.215l3.457-1.255v3.632c-.219.039-.464.078-.69.116a22.659,22.659,0,0,1-10.769-.867Z" transform="translate(520.559 550.861)" fill="#9ea4c4" fill-rule="evenodd"/>
    <g id="Group_3013" data-name="Group 3013" transform="translate(1019.921 1264.807)">
      <path id="Path_6550" data-name="Path 6550" d="M-447-708.034c2.488,0,4.976-.019,7.463.016a17.689,17.689,0,0,1,2.526.255,4.042,4.042,0,0,1,3.352,3.189,10.894,10.894,0,0,1-.161,6.523,3.858,3.858,0,0,1-3.64,2.9c-1.374.082-2.756.016-4.174.016V-697c.725,0,1.43.005,2.135,0a2.2,2.2,0,0,0,2.444-2.181,27.429,27.429,0,0,0-.006-4.184,2.3,2.3,0,0,0-2.325-2.457c-1.392-.2-2.818-.173-4.283-.248v19.249H-447Z" transform="translate(0)" fill="#9ea4c4"/>
      <path id="Path_6551" data-name="Path 6551" d="M-130.066-641.969c1.124-2.731,2.254-5.46,3.36-8.2a1.025,1.025,0,0,0-.064-.667q-2.8-7.373-5.612-14.74c-.076-.2-.141-.4-.246-.7,1.254,0,2.446-.016,3.636.023.135,0,.313.3.38.5q1.822,5.276,3.62,10.561c.063.185.129.369.251.716.125-.307.2-.485.271-.668,1.3-3.531,2.6-7.058,3.88-10.6a.689.689,0,0,1,.805-.546c.786.037,1.575.01,2.464.01-.1.272-.173.483-.257.688q-4.751,11.589-9.5,23.178c-.059.144-.094.3-.14.447Z" transform="translate(-277.122 -36.798)" fill="#9ea4c4"/>
      <path id="Path_6552" data-name="Path 6552" d="M510.329-659.019c-.2,1.349-.326,2.784-.627,4.182a4.583,4.583,0,0,1-3.884,3.722,13,13,0,0,1-5.572-.049,4.618,4.618,0,0,1-3.667-3.678,18.508,18.508,0,0,1-.076-8.269,4.782,4.782,0,0,1,4.129-4.061,12.827,12.827,0,0,1,5.854.2,4.555,4.555,0,0,1,3.3,3.813C510.048-661.829,510.144-660.468,510.329-659.019Zm-3.637.21c-.091-1.26-.134-2.186-.235-3.106a7.726,7.726,0,0,0-.322-1.377,2.445,2.445,0,0,0-1.2-1.539,3.144,3.144,0,0,0-4.728,2.188,18.877,18.877,0,0,0-.083,6.646,3.272,3.272,0,0,0,1.263,2.446,3.127,3.127,0,0,0,4.86-1.839A32.874,32.874,0,0,0,506.692-658.809Z" transform="translate(-831.33 -35.812)" fill="#9ea4c4"/>
      <path id="Path_6553" data-name="Path 6553" d="M648.818-663.749v14.067h-3.262V-665.7a.716.716,0,0,1,.2-.063c2.723-.041,5.448-.14,8.17-.093a4.022,4.022,0,0,1,4.063,2.512,7.68,7.68,0,0,1,.46,2.6c.05,3.592.021,7.186.02,10.779a2.483,2.483,0,0,1-.033.271h-3.322v-.675q0-4.916,0-9.832a7.189,7.189,0,0,0-.051-1.181,2.6,2.6,0,0,0-2.727-2.358C651.2-663.78,650.053-663.749,648.818-663.749Z" transform="translate(-963.101 -37.175)" fill="#9ea4c4"/>
      <path id="Path_6554" data-name="Path 6554" d="M227.8-649.446c-1.62,0-3.174.029-4.726-.008s-3.117-.064-4.661-.23a3.417,3.417,0,0,1-3.315-3.013,7.217,7.217,0,0,1,.1-3.743,3.678,3.678,0,0,1,3.01-2.772c1.367-.234,2.771-.252,4.215-.37v1.947c-.608.042-1.232.055-1.849.132a2.326,2.326,0,0,0-2.116,2.241,10.555,10.555,0,0,0,.007,1.537,2.123,2.123,0,0,0,1.8,2.06,15,15,0,0,0,4.177.041v-.635q0-3.879,0-7.758a7,7,0,0,0-.072-1.239,2.637,2.637,0,0,0-2.926-2.268c-1.438-.006-2.876,0-4.358,0v-2c.5-.025,1.009-.074,1.515-.071,1.832.01,3.676-.087,5.492.091a3.871,3.871,0,0,1,3.6,3.825c.107,1.652.094,3.312.106,4.969.016,2.151,0,4.3,0,6.455Z" transform="translate(-583.47 -37.401)" fill="#9ea4c4"/>
      <path id="Path_6555" data-name="Path 6555" d="M-253.913-663.524v-1.994c.486-.024.972-.071,1.457-.068,1.852.009,3.716-.1,5.552.086a3.867,3.867,0,0,1,3.619,3.867c.1,1.375.094,2.76.1,4.141.015,2.409,0,4.818,0,7.227v.727h-1.515c-2.328,0-4.656.016-6.983-.019a7.792,7.792,0,0,1-1.741-.3,3.23,3.23,0,0,1-2.352-2.427,7.188,7.188,0,0,1-.006-4.143,3.865,3.865,0,0,1,3.466-2.881c1.224-.16,2.47-.157,3.758-.23v1.962c-.367,0-.751-.011-1.135,0-1.994.065-2.855.959-2.857,2.962,0,.178.005.355.012.533a2.312,2.312,0,0,0,2.4,2.519c1.041.058,2.089-.01,3.135-.008.395,0,.486-.186.484-.551-.013-2.705,0-5.41-.013-8.115a5.208,5.208,0,0,0-.1-1.118,2.622,2.622,0,0,0-2.889-2.167C-250.962-663.53-252.4-663.524-253.913-663.524Z" transform="translate(-168.301 -37.403)" fill="#9ea4c4"/>
      <path id="Path_6556" data-name="Path 6556" d="M11.174-686.138v-2c.393,0,.779-.007,1.165,0,1.085.025,2.172.1,3.256.076,2.776-.067,3.148-1.016,3.358-2.842a11.706,11.706,0,0,0-.148-2.988,1.659,1.659,0,0,0-1.551-1.409,24.124,24.124,0,0,0-2.413-.232,4.276,4.276,0,0,1-4.449-3.894,10.911,10.911,0,0,1,.172-4.292c.536-2.154,1.6-3.225,3.786-3.371,2.215-.148,4.448-.033,6.718-.033v1.93H17.751a13.355,13.355,0,0,0-1.418.012,2.628,2.628,0,0,0-2.653,2.758,10.475,10.475,0,0,0,.178,2.232,1.688,1.688,0,0,0,1.555,1.477c1.015.135,2.042.182,3.058.311a3.941,3.941,0,0,1,3.683,3.363,12.6,12.6,0,0,1-.214,5.971A3.661,3.661,0,0,1,18.7-686.2,47.2,47.2,0,0,1,11.174-686.138Z" transform="translate(-403.078 -0.773)" fill="#9ea4c4"/>
      <path id="Path_6557" data-name="Path 6557" d="M356.042-690.71h3.3v2.9h3.734v2.011h-3.691c-.012.265-.028.457-.028.649,0,2.784-.009,5.568,0,8.352,0,.729.051,1.46.116,2.187a1.029,1.029,0,0,0,1.163,1.061c.532.011,1.064,0,1.651,0v1.961c-1.394,0-2.8.1-4.178-.031a2.121,2.121,0,0,1-1.966-2.205c-.059-.845-.1-1.694-.1-2.541q-.015-6.782,0-13.564Z" transform="translate(-707.89 -15.276)" fill="#9ea4c4"/>
      <path id="Path_6558" data-name="Path 6558" d="M142.043-690.815h3.288v2.886h3.748v2.047H145.4c-.016.162-.034.257-.034.351.031,3.491.051,6.982.1,10.472.017,1.132.36,1.422,1.48,1.419.449,0,.9,0,1.38,0v1.943a41.133,41.133,0,0,1-4.252-.033,2.169,2.169,0,0,1-1.942-2.237c.011-2.819-.068-5.638-.087-8.458-.018-2.565,0-5.129,0-7.694Z" transform="translate(-519.243 -15.183)" fill="#9ea4c4"/>
      <path id="Path_6559" data-name="Path 6559" d="M-309.031-686.471v-21.152h3.266v21.152Z" transform="translate(-121.621 -0.367)" fill="#9ea4c4"/>
      <path id="Path_6560" data-name="Path 6560" d="M439.977-665.936h3.256v16.2h-3.256Z" transform="translate(-781.881 -37.114)" fill="#9ea4c4"/>
      <path id="Path_6561" data-name="Path 6561" d="M781.045-582.184a3.188,3.188,0,0,1,3.221,3.172,3.226,3.226,0,0,1-3.235,3.294,3.217,3.217,0,0,1-3.219-3.187A3.187,3.187,0,0,1,781.045-582.184Zm-2.675,3.228a2.676,2.676,0,0,0,2.655,2.681,2.7,2.7,0,0,0,2.689-2.715,2.682,2.682,0,0,0-2.694-2.644A2.659,2.659,0,0,0,778.37-578.956Z" transform="translate(-1079.685 -110.943)" fill="#9ea4c4"/>
      <path id="Path_6562" data-name="Path 6562" d="M443.182-704.716h-3.259V-707.6h3.259Z" transform="translate(-781.833 -0.388)" fill="#9ea4c4"/>
      <path id="Path_6563" data-name="Path 6563" d="M793.532-570.88c.664,0,1.256-.037,1.843.009a1.009,1.009,0,0,1,.878,1.595.784.784,0,0,0-.019.44c.08.5.177.993.275,1.53-.38.066-.813.214-.773-.442.056-.905-.086-1.02-1.127-1-.116,0-.232.012-.42.023v1.434h-.657Zm.667,1.547a5.106,5.106,0,0,0,1.068-.021c.181-.04.44-.3.437-.451a.666.666,0,0,0-.422-.479,5.1,5.1,0,0,0-1.082-.022Z" transform="translate(-1093.544 -120.895)" fill="#9ea4c4"/>
    </g>
  </g>
</svg>
