<svg xmlns="http://www.w3.org/2000/svg" width="165.509" height="40.556" viewBox="0 0 165.509 40.556">
  <g id="Group_3044" data-name="Group 3044" transform="translate(-521.474 -676.909)">
    <g id="Steam_icon_logo" transform="translate(521.474 676.909)">
      <path id="Path_6564" data-name="Path 6564" d="M1.059,26.11a20.289,20.289,0,1,0-.808-7.18c1.312,2.2,1.824,3.566.808,7.18Z" transform="translate(-0.233)" fill="#9ea4c4"/>
      <path id="Path_6565" data-name="Path 6565" d="M19.357,50.715c0,.034,0,.068,0,.1L14.4,58.023a5.637,5.637,0,0,0-3.325.921L.176,54.458a22.53,22.53,0,0,0,.8,7.239l7.7,3.178A5.622,5.622,0,0,0,19.785,63.5l7.1-5.074c.057,0,.117,0,.174,0a7.716,7.716,0,1,0-7.7-7.717ZM18.167,65.321a4.327,4.327,0,0,1-7.907.211l2.507,1.039a3.2,3.2,0,0,0,2.457-5.906l-2.592-1.074a4.338,4.338,0,0,1,5.535,5.73m8.893-9.465a5.141,5.141,0,1,1,5.133-5.141,5.143,5.143,0,0,1-5.133,5.141m-3.845-5.149a3.855,3.855,0,1,1,3.854,3.861A3.859,3.859,0,0,1,23.214,50.707Z" transform="translate(-0.15 -35.515)" fill="#fff"/>
    </g>
    <g id="Steam_logo" transform="translate(571.679 685.976)">
      <path id="Path_6567" data-name="Path 6567" d="M80.612,27.275a8.326,8.326,0,0,1-5.279,1.6,12.481,12.481,0,0,1-4.073-.6,8.21,8.21,0,0,1-3.154-2.009l2.505-2.5a5.114,5.114,0,0,0,2.1,1.278,8.606,8.606,0,0,0,2.683.394c2.332,0,3.5-.824,3.5-2.458a2.292,2.292,0,0,0-.53-1.61,3.1,3.1,0,0,0-1.838-.765l-1.114-.171-1.28-.161a6.733,6.733,0,0,1-3.847-1.641,5.243,5.243,0,0,1-1.42-3.888A5.528,5.528,0,0,1,70.728,10.4,7.313,7.313,0,0,1,75.769,8.75a10.709,10.709,0,0,1,3.607.541,7.536,7.536,0,0,1,2.778,1.767l-2.444,2.417a4.319,4.319,0,0,0-1.848-1.081,8.363,8.363,0,0,0-2.211-.279,3.276,3.276,0,0,0-2.266.707,2.289,2.289,0,0,0-.793,1.788,1.938,1.938,0,0,0,.61,1.4,3.059,3.059,0,0,0,1.81.793l1.192.164,1.145.169a10.07,10.07,0,0,1,2.235.558,4.637,4.637,0,0,1,1.544.974,5.5,5.5,0,0,1,1.529,4.2,5.3,5.3,0,0,1-2.047,4.408ZM97.206,12.331V28.695H93.336V12.331H88.163V8.9h14.215v3.436Zm13.315,16.361V8.894h13.052V12.33H114.4V17h7.811v3.436H114.4v4.818h9.171v3.436Zm33.083,0-1.164-3.508H135.4l-1.2,3.508h-4.03l7.2-19.8h3.028l7.238,19.8Zm-4.612-13.959-2.5,7.191h4.921Zm29.575,13.959V17.158l-3.752,7.509H162.2l-3.8-7.509V28.692h-3.871V8.894h3.823l5.153,10.7,5.13-10.7h3.823v19.8h-3.895ZM180.846,8.284a2.6,2.6,0,1,1-2.565,2.6,2.57,2.57,0,0,1,2.565-2.6Zm0,.408a2.129,2.129,0,0,0-2.066,2.19,2.081,2.081,0,1,0,4.156.012A2.136,2.136,0,0,0,180.846,8.693Zm-.475,3.7H179.9V9.5a5.35,5.35,0,0,1,.831-.069,1.605,1.605,0,0,1,.9.218.71.71,0,0,1,.261.6.727.727,0,0,1-.57.7v.021c.261.045.427.278.475.7a2.348,2.348,0,0,0,.19.719h-.475a2.289,2.289,0,0,1-.214-.738.531.531,0,0,0-.617-.506h-.309v1.243Zm0-1.607h.332c.38,0,.689-.135.689-.494,0-.254-.19-.506-.689-.506a1.691,1.691,0,0,0-.332.024Z" transform="translate(-68.106 -8.284)" fill="#9ea4c4"/>
    </g>
  </g>
</svg>
