<svg xmlns="http://www.w3.org/2000/svg" width="195.444" height="40.556" viewBox="0 0 195.444 40.556">
  <g id="Group_3046" data-name="Group 3046" transform="translate(1149.036 -254.796)">
    <path id="Path_10098" data-name="Path 10098" d="M-192.325,262.938a20.014,20.014,0,0,1-1.136,2.393,6.764,6.764,0,0,1-8,2.469,6.7,6.7,0,0,1-4.289-6.722,6.7,6.7,0,0,1,5.905-6.234c.127-.017.254-.03.381-.046a6.98,6.98,0,0,1,4.652,1.478,7.927,7.927,0,0,1,2.487,3.96Zm-11.21-.821-.589-.022c-.265-.237-.533-.163-.993.017l1.069.207a5.316,5.316,0,0,0,2.471-.164,1.387,1.387,0,0,0,1.088-1.5,1.4,1.4,0,0,0-1.3-1.335,9.192,9.192,0,0,0-2.7.065c.972.263.952.8.936,1.346-.012.415.02.832.033,1.248A.193.193,0,0,0-203.535,262.118Zm9.465-2.755a1.1,1.1,0,0,0-1.567.821,34.886,34.886,0,0,1-1.531,3.161,27.8,27.8,0,0,1-1.5-3.167c-.287-.874-.728-1.037-1.524-.806.787.7.651,4.132-.2,5.027h1.49c-1.039-1.1-.23-2.324-.229-3.493l1.752,3.676,1.826-3.555c.051,1.159.578,2.317-.16,3.363h1.655C-194.886,263.537-194.877,260.045-194.07,259.362Zm-8.2,5.1c-.791-.227-.618-.849-.636-1.38-.008-.239.083-.556-.328-.555s-.309.333-.307.56a1.4,1.4,0,0,1-.719,1.375Z" transform="translate(-761.267 0)" fill="#9ea4c4"/>
    <path id="Path_10099" data-name="Path 10099" d="M-521.477,432.144q-.052-3.6-.1-7.2c0-.241-.073-.6.325-.532.313.057.817-.348.929.285.053.3.119.257.342.141,1.539-.8,2.483-.725,3.246.229a3.487,3.487,0,0,1,.017,3.958c-.765.986-1.887,1.151-3.4.465a17.636,17.636,0,0,0,.016,1.819.891.891,0,0,1-.4.836Zm1.352-5.094c-.014,1.2.49,1.878,1.337,1.787.811-.087,1.279-.866,1.194-1.988-.068-.9-.6-1.487-1.328-1.453C-519.672,425.43-520.112,426.035-520.124,427.049Z" transform="translate(-506.395 -136.792)" fill="#9ea4c4"/>
    <path id="Path_10100" data-name="Path 10100" d="M-649.146,290.327a37.614,37.614,0,0,0,2.468-4.75q2.339-4.745,4.659-9.5a9.784,9.784,0,0,0,.987-2.8c.067-.437.253-.5.626-.5,1.478.014,2.956.009,4.435,0,.3,0,.579-.025.593.411.012.377-.23.421-.492.432-2.142.091-2.572.61-2.595,3.247-.042,4.917.235,9.825.373,14.737.047,1.685.4,2.024,2.119,2.2.341.034.664.018.636.494-.026.453-.323.472-.676.443a41.146,41.146,0,0,0-6.928,0c-.366.031-.654-.037-.7-.447-.058-.484.3-.457.633-.5,1.919-.223,2.044-.358,2.037-2.268q-.024-6.75-.062-13.5c0-.147,0-.295,0-.628a7.24,7.24,0,0,0-1.2,2.03c-2.238,5.078-5.086,9.859-7.26,14.967-.113.265-.2.578-.57.548-.27-.022-.319-.27-.4-.48-1.846-4.619-4.194-9.008-6.208-13.549a34.728,34.728,0,0,0-1.656-3.421c-.059.763-.142,1.526-.173,2.29q-.227,5.728-.428,11.456a4.243,4.243,0,0,0,.035.674c.189,1.523.47,1.784,2,1.891.36.025.884-.119.859.476-.029.68-.577.428-.958.405a41.9,41.9,0,0,0-5.584.01c-.379.028-.82.182-.879-.408-.057-.558.4-.459.728-.511,1.58-.252,1.9-.539,2.073-2.145.557-5.208.866-10.433.967-15.669.031-1.634-.247-1.9-1.86-2.258-.338-.074-.986.106-.89-.569.092-.644.67-.334,1.029-.344,1.284-.035,2.57-.024,3.855-.008.275,0,.688-.181.709.367a11.7,11.7,0,0,0,1.529,4.626C-653.311,281.931-651.253,286.057-649.146,290.327Z" transform="translate(-391.885 -14.476)" fill="#9ea4c4"/>
    <path id="Path_10101" data-name="Path 10101" d="M-431.105,321.948c0,1.221.021,2.443-.007,3.664a1.3,1.3,0,0,0,1.319,1.541c.361.032.882-.05.772.562-.1.562-.571.364-.94.339a31.929,31.929,0,0,0-4.909.014c-.335.029-.669.108-.742-.353-.07-.44.2-.537.573-.56,1.05-.064,1.411-.684,1.4-1.678-.02-2.057.034-4.115.006-6.172a2.78,2.78,0,0,0-1.5-2.805,3.817,3.817,0,0,0-3.854.307,2.243,2.243,0,0,0-.959,2c0,2.218.01,4.437-.006,6.655-.007.967.3,1.64,1.378,1.691.4.019.61.163.538.585-.069.4-.348.363-.66.338a27.589,27.589,0,0,0-5.194.018c-.336.036-.573-.016-.616-.4s.147-.471.5-.537c1.336-.253,1.5-.432,1.513-1.75.022-2.475-.008-4.951.016-7.427a1.652,1.652,0,0,0-.852-1.5c-.623-.4-.529-.712.118-.983a18,18,0,0,0,2.683-1.293c.41-.258.551-.112.594.338.051.525-.288,1.283.212,1.5.316.14.935-.407,1.418-.646a8.955,8.955,0,0,1,2.642-.859,3.719,3.719,0,0,1,4.525,3.747c.04,1.221.007,2.443.007,3.665Z" transform="translate(-568.596 -47.84)" fill="#9ea4c4"/>
    <path id="Path_10102" data-name="Path 10102" d="M-1149.036,284.878c1.933-.16,3.594-.009,5.256,0a20.86,20.86,0,0,0,5.453-.451c2.66-.69,4.081-2.838,3.822-5.767-.262-2.95-1.809-4.5-4.706-4.723-2.3-.174-2.3-.174-2.3,2.145,0,2.443-.02,4.886.014,7.329.008.618-.142.82-.791.815-1.928-.014-1.921.017-1.931-1.881-.011-2.121.011-4.243-.077-6.361-.064-1.54-.392-1.8-1.912-1.96-.064-.007-.128,0-.192-.011-.35-.036-.753-.012-.725-.543.025-.466.389-.422.706-.458a50.148,50.148,0,0,1,5.294-.187,16.389,16.389,0,0,1,5.806.657c3.732,1.35,5.25,6.114,2.84,9.1a8.421,8.421,0,0,1-5.055,2.767A26.493,26.493,0,0,1-1149.036,284.878Z" transform="translate(0 -14.551)" fill="#9ea4c4"/>
    <path id="Path_10103" data-name="Path 10103" d="M-518.021,323.294a6.968,6.968,0,0,1,7.119-7.146,6.647,6.647,0,0,1,6.682,6.869,6.8,6.8,0,0,1-7.047,7.152A6.6,6.6,0,0,1-518.021,323.294Zm10.9.217a7.383,7.383,0,0,0-1.716-5.169,3.227,3.227,0,0,0-5.147.336,5.946,5.946,0,0,0-1.059,2.952c-.243,2.37,0,4.646,1.756,6.456a3.267,3.267,0,0,0,5.2-.607A7.344,7.344,0,0,0-507.123,323.511Z" transform="translate(-509.27 -49.515)" fill="#9ea4c4"/>
    <path id="Path_10104" data-name="Path 10104" d="M-938.5,281.1c0,1.317-.01,2.634,0,3.951.014,1.419.257,1.657,1.666,1.783.331.03.877-.2.849.455-.03.678-.552.463-.942.436a36.319,36.319,0,0,0-5.482,0c-.323.027-.672.127-.741-.35-.065-.446.222-.5.581-.563,1.322-.221,1.523-.409,1.539-1.734.033-2.794.007-5.588.013-8.382,0-.437-.173-.664-.626-.647-.257.01-.514.016-.771.009-.216-.006-.477.043-.535-.267a.411.411,0,0,1,.3-.53c1.582-.365,1.611-1.55,1.7-2.867a9.9,9.9,0,0,1,2.27-6.209,5.958,5.958,0,0,1,6.1-1.914A2.4,2.4,0,0,1-931,265.3a1.163,1.163,0,0,1-.2,1.646,1.184,1.184,0,0,1-1.661-.03c-.293-.248-.53-.564-.829-.8a2.45,2.45,0,0,0-4.056,1.076,11.8,11.8,0,0,0-.719,3.862c-.043.962,0,1.927-.042,2.889-.023.555.194.734.729.719,1.027-.028,2.056,0,3.084-.012.4,0,.7.045.668.559-.027.452-.084.855-.664.858-1,.006-1.994.04-2.987-.01-.635-.032-.851.17-.834.809C-938.475,278.275-938.5,279.689-938.5,281.1Z" transform="translate(-166.157 -7.501)" fill="#9ea4c4"/>
    <path id="Path_10105" data-name="Path 10105" d="M-290.818,328.173a71.287,71.287,0,0,0,3.363-7.866c.182-.512.046-.882-.563-.967-.317-.044-.631-.112-.944-.181a.414.414,0,0,1-.347-.5c.036-.216.14-.427.444-.4a28.66,28.66,0,0,0,5,.01.385.385,0,0,1,.464.372.4.4,0,0,1-.341.5c-1.432.166-2,1.268-2.565,2.359-2.74,5.3-5.168,10.746-7.7,16.145-.722,1.54-1.434,2.054-2.55,1.888a1.282,1.282,0,0,1-1.266-1.412c.035-.813.52-1.417,1.337-1.334,1.24.126,1.726-.609,2.3-1.484,1.62-2.459,2.06-4.9.691-7.687a56.928,56.928,0,0,1-2.4-6.387c-.377-1.079-.911-1.915-2.153-2.033-.351-.033-.539-.187-.493-.553.05-.395.307-.389.634-.366a34.263,34.263,0,0,0,5.2,0c.312-.026.589-.042.627.378.035.383-.183.486-.513.542-1.524.258-1.176.575-.844,1.606C-292.65,323.213-291.867,325.622-290.818,328.173Z" transform="translate(-686.409 -51.22)" fill="#9ea4c4"/>
    <path id="Path_10106" data-name="Path 10106" d="M-1054.641,321.217c-1.189,0-2.378.022-3.567-.009-.581-.015-.792.185-.782.778.039,2.156.588,4.071,2.459,5.371a4.287,4.287,0,0,0,5.688-.453c.2-.2.37-.5.71-.234.379.294.1.569-.055.831-1.853,3.073-6.9,3.523-9.413.842-3.215-3.424-1.711-10.1,2.671-11.76a5.388,5.388,0,0,1,5.554.674,3.731,3.731,0,0,1,1.2,1.6c.665,1.707.229,2.357-1.571,2.357Zm-1.4-1.074,0,.03c.766-.039,1.538-.036,2.3-.133.422-.053,1.046.151,1.162-.552a1.677,1.677,0,0,0-.6-1.717c-1.594-1.245-4.825-.173-5.382,1.782-.108.379-.083.613.409.6C-1057.449,320.124-1056.744,320.142-1056.04,320.142Z" transform="translate(-70.79 -49.489)" fill="#9ea4c4"/>
    <path id="Path_10107" data-name="Path 10107" d="M-355.275,321.238h-3.564c-.412,0-.761.038-.776.6-.075,2.9,1.441,6,4.851,6.361a3.62,3.62,0,0,0,3.215-1.138c.223-.236.4-.7.834-.368.47.362.058.707-.147.977a5.894,5.894,0,0,1-6.3,2.3,5.553,5.553,0,0,1-4.493-4.477c-1.007-3.965,1.054-7.98,4.654-9.073a4.984,4.984,0,0,1,5.932,1.915,3.888,3.888,0,0,1,.444.953c.423,1.483.068,1.94-1.477,1.945C-353.156,321.24-354.216,321.238-355.275,321.238Zm-1.49-1.074v-.035c.674,0,1.348,0,2.021,0a4.806,4.806,0,0,0,.573-.066c1.12-.148,1.452-.925.779-1.863a2.352,2.352,0,0,0-1.539-.9,4.073,4.073,0,0,0-4.108,2.08c-.317.638-.172.86.541.8C-357.924,320.127-357.343,320.164-356.765,320.164Z" transform="translate(-635.267 -49.51)" fill="#9ea4c4"/>
    <path id="Path_10108" data-name="Path 10108" d="M-890.11,321.258c-1.19,0-2.379,0-3.568,0-.428,0-.8.068-.784.6.067,2.121.513,4.089,2.354,5.439a4.317,4.317,0,0,0,5.842-.372c.21-.2.387-.486.713-.206.362.311.067.583-.091.84a5.982,5.982,0,0,1-6.237,2.464,5.578,5.578,0,0,1-4.646-4.556c-.557-2.906-.059-5.578,2.214-7.681,2.381-2.2,6.137-2.151,8.049.081a3.771,3.771,0,0,1,.619.968c.732,1.739.28,2.42-1.574,2.42Zm-1.469-1.074,0,.039c.9-.051,1.8-.073,2.69-.161.869-.085,1.087-.452.854-1.286a1.76,1.76,0,0,0-.923-1.161,3.906,3.906,0,0,0-5.066,2c-.137.424-.039.587.418.573C-892.929,320.168-892.254,320.184-891.579,320.184Z" transform="translate(-203.624 -49.53)" fill="#9ea4c4"/>
    <path id="Path_10109" data-name="Path 10109" d="M-833.035,323.58c.086-6.468,6.405-8.447,10.611-6.92a1.629,1.629,0,0,1,.526,2.37c-.486.533-.841.174-1.193-.2a4.056,4.056,0,0,0-3.432-1.414,4.2,4.2,0,0,0-3.491,2.4,6.1,6.1,0,0,0,1.168,7.028,4.617,4.617,0,0,0,6.821-.184c.188-.206.316-.528.686-.289s.223.528.071.829c-1.169,2.315-4.459,3.533-7.288,2.691C-831.418,329.046-833.018,326.789-833.035,323.58Z" transform="translate(-255.034 -49.534)" fill="#9ea4c4"/>
    <path id="Path_10110" data-name="Path 10110" d="M-994.271,316.483c.747-.524,1.348-.995,2-1.386a2.478,2.478,0,0,1,2.095-.434,1.331,1.331,0,0,1,.945,1.942,1.377,1.377,0,0,1-2,.662,9.359,9.359,0,0,0-.957-.443,1.333,1.333,0,0,0-1.8.816,4.09,4.09,0,0,0-.273,1.8c0,1.993,0,3.987,0,5.98,0,1.474.246,1.733,1.7,1.837.128.009.257.013.386.01.31-.006.478.121.482.452,0,.389-.209.512-.55.484a32.188,32.188,0,0,0-6.059-.007c-.336.035-.471-.161-.518-.435-.055-.32.13-.425.428-.5,1.538-.414,1.538-.427,1.539-2.014,0-2.283-.015-4.566.009-6.848a1.721,1.721,0,0,0-.835-1.788c-.543-.3-.657-.688.07-1.007q1.365-.6,2.686-1.3c.493-.26.648-.086.656.385C-994.263,315.232-994.271,315.778-994.271,316.483Z" transform="translate(-121.222 -47.927)" fill="#9ea4c4"/>
    <path id="Path_10111" data-name="Path 10111" d="M-764.5,315.62c0-1.284-.038-2.57.013-3.852.033-.831-.145-1.316-1.106-1.166-.258.04-.6.1-.648-.35-.039-.4.257-.481.526-.559a4.62,4.62,0,0,0,2.726-2.292c.161-.276.281-.6.709-.488.467.119.319.5.32.791,0,1.544-.187,1.493,1.528,1.489.674,0,1.349,0,2.023,0,.479,0,.984-.1.971.672s-.478.768-1.035.755c-.9-.021-1.8.036-2.7-.022-.576-.037-.868.146-.863.712a75.446,75.446,0,0,0,.11,7.6c.224,2.036,1.7,2.782,3.523,1.891.242-.119.488-.428.743-.07.267.375-.082.587-.3.794a4.957,4.957,0,0,1-5.147.723,2.7,2.7,0,0,1-1.377-2.488c-.029-1.38-.007-2.761-.007-4.141Z" transform="translate(-308.935 -42.044)" fill="#9ea4c4"/>
    <path id="Path_10112" data-name="Path 10112" d="M-1133.4,352.082c-1.846.054-3.229-.059-4.606.13-.354.049-.761.093-.8-.425s.4-.469.74-.521c1.574-.238,1.863-.472,1.984-2.062.117-1.535.107-3.08.113-4.622,0-.489.107-.647.64-.625,2.075.084,2.076.061,2.076,2.165,0,.9-.016,1.8,0,2.7.039,1.762.519,2.268,2.273,2.443a2.331,2.331,0,0,0,.288.022c.363-.009.65.067.607.524s-.386.434-.712.416C-1131.818,352.172-1132.842,352.113-1133.4,352.082Z" transform="translate(-8.256 -71.958)" fill="#9ea4c4"/>
    <path id="Path_10113" data-name="Path 10113" d="M-623.678,427.473c0,.674.014,1.348-.008,2.022-.008.229.16.593-.166.66s-.805.215-.986-.1c-.267-.463-.435-.231-.717-.08-1.5.8-2.833.154-3-1.516-.109-1.08-.034-2.178-.066-3.268-.018-.613.418-.444.73-.446s.738-.156.718.456c-.029.865-.017,1.733,0,2.6.016.64.122,1.292.954,1.286.81-.006,1.08-.557,1.073-1.3-.008-.834.034-1.671-.013-2.5-.035-.632.355-.558.739-.547.356.011.793-.144.749.519C-623.716,425.994-623.678,426.735-623.678,427.473Z" transform="translate(-420.008 -137.146)" fill="#9ea4c4"/>
    <path id="Path_10114" data-name="Path 10114" d="M-398.666,427.324c-.386,0-.772-.016-1.156.006-.2.012-.5-.137-.569.172a.746.746,0,0,0,.288.682,2.314,2.314,0,0,0,2.269.355c.3-.075.568-.15.609.312.025.278.179.514-.232.692A3.876,3.876,0,0,1-401.1,429a3.2,3.2,0,0,1-.367-3.6,2.573,2.573,0,0,1,3.135-1.2,2.534,2.534,0,0,1,1.514,2.729c-.055.453-.308.4-.594.4C-397.831,427.322-398.249,427.323-398.666,427.324Zm-.615-.892c.276-.4.972.319,1.042-.418.058-.61-.436-.981-1.057-.962a.982.982,0,0,0-1.048.914C-400.335,426.706-399.641,426.1-399.281,426.431Z" transform="translate(-603.026 -136.599)" fill="#9ea4c4"/>
    <path id="Path_10115" data-name="Path 10115" d="M-481.859,427.311c-.353,0-.708-.02-1.06.007-.237.018-.584-.156-.689.139-.117.328.134.617.389.808a2.432,2.432,0,0,0,2.209.254c.258-.068.515-.138.559.269.033.312.152.589-.3.763A3.8,3.8,0,0,1-484.3,429a3.009,3.009,0,0,1-.552-3.237,2.59,2.59,0,0,1,2.906-1.7,2.356,2.356,0,0,1,1.9,2.431c.027.573-.056.926-.752.819A7.079,7.079,0,0,0-481.859,427.311Zm-1.782-1c.613,0,1.185-.019,1.756.005.6.025.539-.287.366-.659a.967.967,0,0,0-1.086-.621A1.225,1.225,0,0,0-483.641,426.314Z" transform="translate(-535.849 -136.588)" fill="#9ea4c4"/>
    <path id="Path_10116" data-name="Path 10116" d="M-424.834,417.1c0-.513.007-1.026,0-1.538-.007-.331.075-.623-.461-.766-.444-.118-.384-.87-.042-.936.652-.127.511-.559.582-.916a2.024,2.024,0,0,1,2.346-1.737c.3.055.642.052.574.56-.053.394-.059.668-.593.586a.793.793,0,0,0-.907.681c-.105.419-.175.869.521.77.426-.06.624.056.619.554,0,.479-.232.541-.588.483-.588-.1-.6.251-.594.682.017,1.057-.024,2.116.018,3.172.02.508-.189.621-.614.551-.35-.057-.9.243-.863-.51C-424.811,418.191-424.834,417.645-424.834,417.1Z" transform="translate(-583.85 -126.206)" fill="#9ea4c4"/>
    <path id="Path_10117" data-name="Path 10117" d="M-335.225,417.956a2.444,2.444,0,0,1,.027.51c-.075.557.075.866.71.755.4-.07.565.09.568.524,0,.455-.2.573-.584.507-.666-.116-.73.249-.7.776.036.543.02,1.09,0,1.634-.016.565.153.977.8.912.525-.053.358.309.391.557.041.308.01.517-.392.6a1.614,1.614,0,0,1-2.178-1.593c-.031-.607.021-1.22-.019-1.826-.028-.435.3-1.057-.6-1.117-.312-.021-.166-.721-.151-.725C-336.414,419.253-336.632,417.5-335.225,417.956Z" transform="translate(-655.054 -131.621)" fill="#9ea4c4"/>
    <path id="Path_10118" data-name="Path 10118" d="M-564.746,422.121c0-.385-.005-.77,0-1.155.005-.335.022-.663-.47-.633-.388.024-.371-.257-.372-.522s-.015-.54.374-.518c.315.018.517-.107.459-.438-.1-.592.316-.654.713-.8.5-.183.738-.069.657.487s.09.857.717.752c.375-.063.594.044.589.5,0,.426-.153.607-.562.532-.713-.131-.782.27-.749.828s0,1.09.009,1.636c0,.511.172.921.772.853.456-.052.44.193.454.5.016.352-.018.582-.456.669a1.607,1.607,0,0,1-2.134-1.641C-564.756,422.827-564.746,422.474-564.746,422.121Z" transform="translate(-470.882 -131.697)" fill="#9ea4c4"/>
    <path id="Path_10119" data-name="Path 10119" d="M-590.97,429.641c-.369-.055-.753-.091-1.127-.175-.4-.091-.544-.288-.414-.761s.336-.451.679-.314a1.457,1.457,0,0,0,.459.135c.459.018,1.059.231,1.214-.418.143-.6-.447-.691-.844-.858-1.348-.569-1.786-1.332-1.308-2.314a2.478,2.478,0,0,1,3.07-.818c.4.215.2.454.138.725-.071.323-.189.445-.517.267a1.272,1.272,0,0,0-.469-.1c-.386-.039-.844-.108-.974.367-.141.512.357.6.688.765.229.113.482.179.708.3a1.57,1.57,0,0,1,.906,1.745,1.548,1.548,0,0,1-1.333,1.327A8.564,8.564,0,0,1-590.97,429.641Z" transform="translate(-449.115 -136.469)" fill="#9ea4c4"/>
    <path id="Path_10120" data-name="Path 10120" d="M-655.5,416.974a13.187,13.187,0,0,1-.152,2.908,2.519,2.519,0,0,1-3.275,1.508c-.409-.189-.178-.483-.189-.735-.013-.3.116-.434.46-.451,1.542-.074,1.7-.251,1.712-1.8.008-1.251.022-2.5-.008-3.753-.014-.565.052-.859.758-.847.657.012.727.27.7.8C-655.523,415.342-655.5,416.081-655.5,416.974Z" transform="translate(-395.357 -128.33)" fill="#9ea4c4"/>
    <path id="Path_10121" data-name="Path 10121" d="M-364.622,429.731c-1.458,0-2.407-.551-2.774-1.6a2.971,2.971,0,0,1,.58-3.228,3.4,3.4,0,0,1,3.227-.725c.435.157.32.4.251.672-.081.325-.149.5-.626.405-1.368-.261-2.224.45-2.191,1.687a1.612,1.612,0,0,0,1.922,1.632c.471-.077.883-.246.95.472s-.49.529-.844.625A2.39,2.39,0,0,1-364.622,429.731Z" transform="translate(-630.649 -136.587)" fill="#9ea4c4"/>
    <path id="Path_10122" data-name="Path 10122" d="M-447.963,424.726c.343-.253.588-.45.851-.621s.636-.254.821-.092c.276.239.11.666.118,1.012.011.46-.361.231-.566.274a1.234,1.234,0,0,0-1.051,1.3,22.455,22.455,0,0,0,0,2.314c.045.641-.3.623-.761.639-.5.017-.75-.047-.727-.653.05-1.316,0-2.636.03-3.954.007-.284-.279-.775.3-.836C-448.5,424.063-447.916,423.89-447.963,424.726Z" transform="translate(-564.724 -136.5)" fill="#9ea4c4"/>
    <path id="Path_10123" data-name="Path 10123" d="M-190.729,282.13l-.248-.094c.01-.513,0-1.027.039-1.537.026-.3-.221-.782.347-.838a1.049,1.049,0,0,1,1.127.564C-189.008,281.116-189.526,281.9-190.729,282.13Z" transform="translate(-773.217 -20.062)" fill="#9ea4c4"/>
  </g>
</svg>
