<svg xmlns="http://www.w3.org/2000/svg" width="100.907" height="69.9" viewBox="0 0 100.907 69.9">
  <g id="money-card" transform="translate(0 0.001)">
    <path id="Path_2147" data-name="Path 2147" d="M7.605,61.113h96.417V75.864H7.605Zm0,0" transform="translate(-3.116 -46.146)" fill="#14c4bb"/>
    <path id="Path_2148" data-name="Path 2148" d="M358.857,230.446a8.345,8.345,0,1,1-8.344-8.345A8.344,8.344,0,0,1,358.857,230.446Zm0,0" transform="translate(-274.159 -176.607)" fill="#f9c663"/>
    <path id="Path_2149" data-name="Path 2149" d="M401.466,230.446a8.345,8.345,0,1,1-8.344-8.345A8.344,8.344,0,0,1,401.466,230.446Zm0,0" transform="translate(-308.423 -176.607)" fill="#f9c663"/>
    <path id="Path_2150" data-name="Path 2150" d="M388.95,227.816a8.343,8.343,0,0,0,0,14.451,8.343,8.343,0,0,0,0-14.451Zm0,0" transform="translate(-308.423 -181.202)" fill="#f9c663"/>
    <path id="Path_2151" data-name="Path 2151" d="M92.64,0H79.966a1.489,1.489,0,0,0,0,2.978H92.64a4.656,4.656,0,0,1,4.65,4.65v2.85H2.978V7.627a4.656,4.656,0,0,1,4.65-4.65H74.009a1.489,1.489,0,1,0,0-2.978H7.628A7.637,7.637,0,0,0,0,7.627V45a1.489,1.489,0,1,0,2.978,0V28.981H97.291V62.27a4.656,4.656,0,0,1-4.65,4.65H7.628a4.656,4.656,0,0,1-4.65-4.65V50.961a1.489,1.489,0,1,0-2.978,0V62.27A7.637,7.637,0,0,0,7.628,69.9H92.64a7.638,7.638,0,0,0,7.628-7.629V7.627A7.637,7.637,0,0,0,92.64,0ZM2.978,26V13.457H97.291V26Zm0,0" fill="#2b376f"/>
    <path id="Path_2152" data-name="Path 2152" d="M334.563,224.333a9.829,9.829,0,0,0,14.006,8.9,9.833,9.833,0,1,0,0-17.8,9.83,9.83,0,0,0-14.006,8.9Zm11.323,0a6.845,6.845,0,0,1,2.683-5.434,6.845,6.845,0,0,1,0,10.868A6.846,6.846,0,0,1,345.886,224.333Zm13.71,0a6.846,6.846,0,0,1-8.057,6.748,9.808,9.808,0,0,0,0-13.5,6.85,6.85,0,0,1,8.057,6.748Zm-15.2-6.855a6.844,6.844,0,0,1,1.2.108,9.8,9.8,0,0,0,0,13.5,6.855,6.855,0,1,1-1.2-13.6Zm0,0" transform="translate(-269.043 -172.494)" fill="#2b376f"/>
    <path id="Path_2153" data-name="Path 2153" d="M41.935,179.591H52.8a1.489,1.489,0,1,0,0-2.978H41.935a1.489,1.489,0,1,0,0,2.978Zm0,0" transform="translate(-32.525 -142.027)" fill="#2b376f"/>
    <path id="Path_2154" data-name="Path 2154" d="M224.56,179.591a1.489,1.489,0,0,0,0-2.978H213.693a1.489,1.489,0,1,0,0,2.978Zm0,0" transform="translate(-170.646 -142.027)" fill="#2b376f"/>
    <path id="Path_2155" data-name="Path 2155" d="M138.68,179.591a1.489,1.489,0,1,0,0-2.978H127.814a1.489,1.489,0,1,0,0,2.978Zm0,0" transform="translate(-101.585 -142.027)" fill="#2b376f"/>
    <path id="Path_2156" data-name="Path 2156" d="M310.442,176.613H299.575a1.489,1.489,0,0,0,0,2.978h10.867a1.489,1.489,0,0,0,0-2.978Zm0,0" transform="translate(-239.71 -142.027)" fill="#2b376f"/>
    <path id="Path_2157" data-name="Path 2157" d="M41.935,252.69H76.007a1.489,1.489,0,0,0,0-2.979H41.935a1.489,1.489,0,0,0,0,2.979Zm0,0" transform="translate(-32.525 -200.809)" fill="#2b376f"/>
    <path id="Path_2158" data-name="Path 2158" d="M41.935,288.362H61.647a1.489,1.489,0,0,0,0-2.979H41.935a1.489,1.489,0,0,0,0,2.979Zm0,0" transform="translate(-32.525 -229.495)" fill="#2b376f"/>
  </g>
</svg>
