<svg xmlns="http://www.w3.org/2000/svg" width="90.219" height="77.894" viewBox="0 0 90.219 77.894">
  <g id="password" transform="translate(0 -34.972)">
    <g id="XMLID_622_" transform="translate(1.321 36.293)">
      <g id="XMLID_623_" transform="translate(0)">
        <path id="XMLID_625_" d="M95.074,45.966v12.5H7.5v-12.5a3.5,3.5,0,0,1,3.5-3.5H91.579A3.5,3.5,0,0,1,95.074,45.966Z" transform="translate(-7.498 -42.469)" fill="#b0d1cf"/>
        <path id="XMLID_2223_" d="M95.076,55.672H7.5v-9.7a3.5,3.5,0,0,1,3.5-3.5H91.58a3.5,3.5,0,0,1,3.5,3.5v9.7Z" transform="translate(-6.34 -41.312)" fill="#f9c663"/>
      </g>
      <g id="XMLID_631_" transform="translate(15.292 31.862)">
        <g id="XMLID_632_" transform="translate(0 12.34)">
          <path id="XMLID_2221_" d="M101.222,302.131H89.57A1.871,1.871,0,0,1,87.7,300.26V288.608a1.871,1.871,0,0,1,1.871-1.871h11.652a1.871,1.871,0,0,1,1.871,1.871V300.26A1.871,1.871,0,0,1,101.222,302.131Z" transform="translate(-87.699 -286.737)" fill="#f9c663"/>
        </g>
        <g id="XMLID_634_" transform="translate(25.869)">
          <path id="XMLID_2219_" d="M271.381,231.2h-28.3a1.989,1.989,0,0,1-1.989-1.989v-3.934a1.989,1.989,0,0,1,1.989-1.989h28.3a1.989,1.989,0,0,1,1.989,1.989v3.934A1.989,1.989,0,0,1,271.381,231.2Z" transform="translate(-241.087 -223.29)" fill="#14c4bb"/>
          <path id="XMLID_2218_" d="M271.381,305.5h-28.3a1.989,1.989,0,0,1-1.989-1.989v-3.934a1.989,1.989,0,0,1,1.989-1.989h28.3a1.989,1.989,0,0,1,1.989,1.989v3.934A1.989,1.989,0,0,1,271.381,305.5Z" transform="translate(-241.087 -284.493)" fill="#14c4bb"/>
        </g>
      </g>
    </g>
    <g id="XMLID_613_" transform="translate(0 34.972)">
      <path id="XMLID_635_" d="M9.578,110.224H2.919a.276.276,0,0,1-.276-.276V50.812c19-.063,38.176-.062,57.012,0h0a1.322,1.322,0,0,0,0-2.643c-18.839-.066-38.016-.067-57.022,0V39.79a2.177,2.177,0,0,1,2.174-2.174H52.456a1.322,1.322,0,0,0,0-2.643H4.817A4.823,4.823,0,0,0,0,39.79v70.157a2.923,2.923,0,0,0,2.919,2.919H9.578a1.322,1.322,0,1,0,0-2.643Z" transform="translate(0 -34.973)" fill="#2b376f"/>
      <path id="XMLID_630_" d="M149.223,34.972H121.672a1.322,1.322,0,1,0,0,2.643h27.551a2.177,2.177,0,0,1,2.174,2.174v8.373c-7.426-.057-14.675-.055-22.111.01a1.322,1.322,0,0,0,.011,2.643h.012c7.427-.065,14.669-.067,22.088-.01v59.141a.276.276,0,0,1-.276.276H78.795a1.322,1.322,0,1,0,0,2.643h72.326a2.923,2.923,0,0,0,2.919-2.919V39.789A4.823,4.823,0,0,0,149.223,34.972Z" transform="translate(-63.821 -34.972)" fill="#2b376f"/>
      <path id="XMLID_628_" d="M115.122,73.812H67.981a1.322,1.322,0,1,0,0,2.643h47.142a1.322,1.322,0,0,0,0-2.643Z" transform="translate(-54.913 -66.968)" fill="#2b376f"/>
      <path id="XMLID_626_" d="M371.783,74.649a1.322,1.322,0,0,0,1.322-1.322V73.1a1.322,1.322,0,0,0-2.643,0v.23A1.322,1.322,0,0,0,371.783,74.649Z" transform="translate(-305.182 -65.291)" fill="#2b376f"/>
      <path id="XMLID_621_" d="M403.041,73.327V73.1a1.322,1.322,0,1,0-2.643,0v.23a1.322,1.322,0,0,0,2.643,0Z" transform="translate(-329.844 -65.291)" fill="#2b376f"/>
      <path id="XMLID_620_" d="M432.979,73.327V73.1a1.322,1.322,0,1,0-2.643,0v.23a1.322,1.322,0,0,0,2.643,0Z" transform="translate(-354.506 -65.291)" fill="#2b376f"/>
      <path id="XMLID_633_" d="M89.217,198.739a5.88,5.88,0,0,0-5.873,5.873v8.314a3.2,3.2,0,0,0-3.146,3.19v11.652a3.2,3.2,0,0,0,3.192,3.192H95.043a3.2,3.2,0,0,0,3.192-3.192V216.116a3.2,3.2,0,0,0-3.146-3.19v-8.314A5.879,5.879,0,0,0,89.217,198.739Zm0,2.643a3.233,3.233,0,0,1,3.23,3.23v8.312h-6.46v-8.312A3.233,3.233,0,0,1,89.217,201.382Zm6.375,14.734v11.652a.55.55,0,0,1-.549.549H83.391a.55.55,0,0,1-.549-.549V216.116a.55.55,0,0,1,.549-.549H95.043A.55.55,0,0,1,95.593,216.116Z" transform="translate(-66.067 -169.882)" fill="#2b376f"/>
      <path id="XMLID_617_" d="M268.513,219.1a3.315,3.315,0,0,0-3.311-3.311H236.9a3.315,3.315,0,0,0-3.311,3.311v3.934a3.315,3.315,0,0,0,3.311,3.311h28.3a3.315,3.315,0,0,0,3.311-3.311Zm-2.643,3.934a.668.668,0,0,1-.668.668H236.9a.668.668,0,0,1-.668-.668V219.1a.668.668,0,0,1,.668-.668h28.3a.668.668,0,0,1,.668.668Z" transform="translate(-192.427 -183.928)" fill="#2b376f"/>
      <path id="XMLID_616_" d="M268.513,297.329v-3.934a3.315,3.315,0,0,0-3.311-3.311H236.9a3.315,3.315,0,0,0-3.311,3.311v3.934a3.315,3.315,0,0,0,3.311,3.311h28.3A3.315,3.315,0,0,0,268.513,297.329Zm-32.283,0v-3.934a.669.669,0,0,1,.668-.668h28.3a.669.669,0,0,1,.668.668v3.934a.669.669,0,0,1-.668.668H236.9A.669.669,0,0,1,236.23,297.329Z" transform="translate(-192.427 -245.131)" fill="#2b376f"/>
      <path id="XMLID_656_" d="M239.038,180.945v-.23a1.322,1.322,0,0,0-2.643,0v.23a1.322,1.322,0,1,0,2.643,0Z" transform="translate(-194.74 -153.945)" fill="#2b376f"/>
      <path id="XMLID_615_" d="M268.975,180.945v-.23a1.322,1.322,0,1,0-2.643,0v.23a1.322,1.322,0,1,0,2.643,0Z" transform="translate(-219.402 -153.945)" fill="#2b376f"/>
      <path id="XMLID_614_" d="M298.913,180.945v-.23a1.322,1.322,0,1,0-2.643,0v.23a1.322,1.322,0,1,0,2.643,0Z" transform="translate(-244.064 -153.945)" fill="#2b376f"/>
      <path id="XMLID_671_" d="M252.372,366.8a1.322,1.322,0,0,0-1.322-1.322H234.909a1.322,1.322,0,0,0,0,2.643H251.05A1.322,1.322,0,0,0,252.372,366.8Z" transform="translate(-192.427 -307.244)" fill="#2b376f"/>
      <path id="XMLID_672_" d="M234.909,389.8a1.322,1.322,0,0,0,0,2.643h4.351a1.322,1.322,0,0,0,0-2.643Z" transform="translate(-192.427 -327.272)" fill="#2b376f"/>
    </g>
  </g>
</svg>
