<svg xmlns="http://www.w3.org/2000/svg" width="73.539" height="74.462" viewBox="0 0 73.539 74.462">
  <g id="shopping-cart" transform="translate(-0.546 0)">
    <path id="Union_2" data-name="Union 2" d="M21.374,49.867c-4.517,0-8.453-2.546-9.834-6.2A9.166,9.166,0,0,1,9.977,40.1L2.142.973A2.744,2.744,0,0,0,0,0H1.947l-.591-2.95c.946-.068,3.833-.068,6.3,0l8.373,42.008c.368,1.84,2.761,4.316,4.783,4.316H51.591c1.7,0,1.688.133,1.688,1.707s.014,2.848-1.687,2.848H20.159a11.127,11.127,0,0,1-2.9-.382,11.228,11.228,0,0,0,6.924,2.318Z" transform="translate(8.66 11.896)" fill="#f9c663"/>
    <path id="Path_2194" data-name="Path 2194" d="M118.79,82.471h52.951a2.009,2.009,0,0,0,0-4.011H118.093" transform="translate(-100.634 -66.623)" fill="#14c4bb"/>
    <path id="Path_2195" data-name="Path 2195" d="M23.488,15.46H17.557a2.476,2.476,0,0,0-2.434-2.025H11.018a2.916,2.916,0,1,1,0-5.833h4.105a8.309,8.309,0,0,1,8.169,6.8Zm0,0" transform="translate(-6.559 -5.46)" fill="#14c4bb"/>
    <path id="Path_2197" data-name="Path 2197" d="M186.578,448.8a4.367,4.367,0,1,1-4.367-4.367A4.367,4.367,0,0,1,186.578,448.8Zm0,0" transform="translate(-151.144 -378.709)" fill="#9ea4c4"/>
    <path id="Path_2198" data-name="Path 2198" d="M344.086,448.8a4.367,4.367,0,1,1-4.367-4.367A4.367,4.367,0,0,1,344.086,448.8Zm0,0" transform="translate(-285.708 -378.709)" fill="#9ea4c4"/>
    <path id="Path_2199" data-name="Path 2199" d="M175.643,436.836a5.405,5.405,0,1,0,5.405,5.405A5.411,5.411,0,0,0,175.643,436.836Zm0,8.623a3.218,3.218,0,1,1,3.218-3.218A3.222,3.222,0,0,1,175.643,445.459Zm0,0" transform="translate(-145.279 -374.009)" fill="#2b376f"/>
    <path id="Path_2200" data-name="Path 2200" d="M333.155,436.836a5.405,5.405,0,1,0,5.405,5.405A5.411,5.411,0,0,0,333.155,436.836Zm0,8.623a3.218,3.218,0,1,1,3.217-3.218A3.222,3.222,0,0,1,333.155,445.459Zm0,0" transform="translate(-280.137 -374.009)" fill="#2b376f"/>
    <path id="Path_2201" data-name="Path 2201" d="M71.061,10.191H61.078a1.094,1.094,0,0,0,0,2.188h9.983a.791.791,0,1,1,0,1.582H19.02l-.293-1.582H56.7a1.094,1.094,0,0,0,0-2.188H18.322l-.463-2.5A9.4,9.4,0,0,0,8.613,0h-4.1a4.01,4.01,0,0,0,0,8.02h4.1a1.383,1.383,0,0,1,1.36,1.131v.006c0,.007,0,.015,0,.021l5.291,28.553a1.094,1.094,0,0,0,2.151-.4L12.364,10.045h3.707l7.8,42.106A5.068,5.068,0,0,0,28.855,56.3H58.62a1.823,1.823,0,1,1,0,3.646H28.854a8.714,8.714,0,0,1-8.566-7.125L18.3,42.11a1.094,1.094,0,0,0-2.151.4l1.984,10.706a10.9,10.9,0,0,0,10.717,8.914H58.62a4.01,4.01,0,1,0,0-8.02H28.854a2.88,2.88,0,0,1-2.832-2.355l-.761-4.108H60.645a4.911,4.911,0,0,0,4.828-4.016s2.335-12.607,2.336-12.608l2.756-14.874h.5a2.978,2.978,0,0,0,0-5.957ZM56.421,29.71H49.774L50.3,16.148h7.609Zm-37-13.561h8.183L29.1,29.71H21.938Zm10.383,0h7.609l.525,13.561H31.3Zm9.8,0h8.5L47.585,29.71H40.131ZM8.613,5.833h-4.1a1.823,1.823,0,0,1,0-3.646h4.1A7.216,7.216,0,0,1,15.66,7.858H11.832A3.571,3.571,0,0,0,8.613,5.833ZM22.344,31.9h6.992l1.487,13.561H24.856Zm9.192,0h6.491l.525,13.561H33.023Zm9.2,13.561L40.216,31.9H47.5l-.525,13.561Zm8.424,0L49.69,31.9h6.491L54.694,45.458Zm14.158-2.227a2.723,2.723,0,0,1-2.677,2.227H56.894L58.382,31.9h7.041ZM65.828,29.71H58.622l1.487-13.561h8.232Zm0,0" transform="translate(0.047)" fill="#2b376f"/>
    <path id="Path_2202" data-name="Path 2202" d="M359.841,467.581a1.094,1.094,0,1,0-.457,1.362A1.1,1.1,0,0,0,359.841,467.581Zm0,0" transform="translate(-305.814 -399.768)" fill="#2b376f"/>
    <path id="Path_2203" data-name="Path 2203" d="M202.331,467.494a1.093,1.093,0,1,0-.47,1.369A1.1,1.1,0,0,0,202.331,467.494Zm0,0" transform="translate(-170.958 -399.679)" fill="#2b376f"/>
  </g>
</svg>
