<svg xmlns="http://www.w3.org/2000/svg" width="84.011" height="93.413" viewBox="0 0 84.011 93.413">
  <g id="support_1_" data-name="support (1)" transform="translate(-26)">
    <path id="Path_2165" data-name="Path 2165" d="M100.432,358.907,91,356H61.666l-9.434,2.907A23.4,23.4,0,0,0,36,380.749h80.664A23.4,23.4,0,0,0,100.432,358.907Z" transform="translate(-6.653 -287.336)" fill="#14c4bb"/>
    <path id="Path_2166" data-name="Path 2166" d="M192.426,119.29l-4.276-.611A30.684,30.684,0,0,1,170.792,110a14.468,14.468,0,0,0-11.572,5.786l-2.821,3.761a113.288,113.288,0,0,0,1.146,12.693c.768,5.08,1.41,9.863,6.444,14.226l-.09.1-3.956,7.912a70.526,70.526,0,0,0,10.478,20l3.987,6.4,3.987-6.4a70.517,70.517,0,0,0,10.478-20l-3.956-7.912-.09-.1a17.825,17.825,0,0,0,5.82-10.409c.353-2.128.475-2.807.635-3.889a113.712,113.712,0,0,0,1.146-12.877Z" transform="translate(-106.823 -90.111)" fill="#fff"/>
    <path id="Path_2168" data-name="Path 2168" d="M357.233,150v11.139a3.465,3.465,0,0,1-3.39,3.536h-4.068l-.454-.071a115.884,115.884,0,0,0,1.075-12.593q.033-1.013.044-2.012h6.794Z" transform="translate(-262.214 -120.232)" fill="#f9c663"/>
    <path id="Path_2169" data-name="Path 2169" d="M175.7,50a16.518,16.518,0,0,1,16.463,16.528c0,.914-.019,2.369-.061,3.611l-4.278-.611a30.684,30.684,0,0,1-17.358-8.679,14.468,14.468,0,0,0-11.572,5.786L156.072,70.4c-.047-1.262-.072-2.736-.072-3.867A16.518,16.518,0,0,1,172.463,50H175.7Z" transform="translate(-105.172 -43.606)" fill="#9ea4c4"/>
    <g id="Group_684" data-name="Group 684" transform="translate(39.977 29.768)">
      <path id="Path_2170" data-name="Path 2170" d="M223.232,253a3.616,3.616,0,1,1,0,7.232h-3.616a3.616,3.616,0,1,1,0-7.232Z" transform="translate(-192.977 -235.7)" fill="#f9c663"/>
      <path id="Path_2171" data-name="Path 2171" d="M124.1,164.039h-4.634A3.424,3.424,0,0,1,116,160.656V150h6.946q.013,1.073.055,2.165A103.505,103.505,0,0,0,124.1,164.039Z" transform="translate(-116 -150)" fill="#f9c663"/>
    </g>
    <path id="Path_2172" data-name="Path 2172" d="M357.808,399.616A1.808,1.808,0,1,0,356,397.808,1.809,1.809,0,0,0,357.808,399.616Z" transform="translate(-270.333 -324.4)" fill="#2b376f"/>
    <path id="Path_2173" data-name="Path 2173" d="M27.808,92.574h79.556a1.808,1.808,0,0,0,1.808-1.808c0-11.161-7.252-21.68-17.245-25.013l-8.594-2.864-3.085-6.17a19.8,19.8,0,0,0,5.36-10.476l.385-2.306h3.291a5.43,5.43,0,0,0,5.424-5.424V27.121a27.121,27.121,0,1,0-54.243,0V38.512a5.433,5.433,0,0,0,3.616,5.113v2.119a5.43,5.43,0,0,0,5.424,5.424h1.588a19.615,19.615,0,0,0,3.033,4.7c.256.294.523.58.8.857l-3.084,6.167-8.594,2.864C33.253,69.086,26,79.6,26,90.766A1.808,1.808,0,0,0,27.808,92.574Zm39.778-5.228-2.452-3.937q-.041-.066-.088-.129a68.939,68.939,0,0,1-4.074-6.086l6.448-6.819,6.794,6.794a68.864,68.864,0,0,1-4.088,6.111C70.038,83.4,70.163,83.212,67.586,87.346Zm8.458-13.461-6.138-6.138,7.727-8.171,2.46,4.92A68.872,68.872,0,0,1,76.044,73.885Zm-8.7-8.7-3.53-3.53a18.136,18.136,0,0,0,6.725.152Zm-10.115-5,7.629,7.63-5.735,6.065A68.891,68.891,0,0,1,55.079,64.5Zm48.251,28.77H70.842l2.224-3.571a72.472,72.472,0,0,0,4.984-7.618l.027-.048,0-.006a72.421,72.421,0,0,0,5.092-11.068l7.611,2.536C98.806,71.859,104.767,80,105.483,88.958ZM45.889,40.32a1.81,1.81,0,0,1-1.808-1.808V28.929h3.67q.009.283.019.569c0,.007,0,.013,0,.019v0c.127,3.629.429,7.319.878,10.8h-2.76ZM83.845,27.083c0,.006,0,.012,0,.018l-2.262-.323A29.053,29.053,0,0,1,65.248,18.61a1.809,1.809,0,0,0-1.278-.53,16.358,16.358,0,0,0-12.577,5.95A14.7,14.7,0,0,1,65.968,10.849H69.2a14.7,14.7,0,0,1,14.655,14.72C83.859,26.137,83.854,26.633,83.845,27.083Zm7.246,11.429a1.81,1.81,0,0,1-1.808,1.808h-2.76c.46-3.56.766-7.349.889-11.08,0-.105.007-.208.01-.311h3.669ZM67.586,3.616a23.537,23.537,0,0,1,23.436,21.7h-3.55A18.313,18.313,0,0,0,69.2,7.232H65.968A18.313,18.313,0,0,0,47.7,25.313H44.15A23.491,23.491,0,0,1,67.586,3.616ZM47.7,45.745V43.936h1.482l.385,2.307c.073.438.164.875.268,1.309h-.327A1.81,1.81,0,0,1,47.7,45.745Zm11.16,5.424a5.433,5.433,0,0,0,5.113,3.616h3.616a5.424,5.424,0,0,0,0-10.849H63.97a5.427,5.427,0,0,0-5.116,3.616H53.581C52.675,44.542,51.64,35.682,51.411,30l2.434-3.245a12.727,12.727,0,0,1,9.411-5.042,32.7,32.7,0,0,0,17.816,8.64l2.662.38c-.178,3.776-.542,7.566-1.062,11.051v0c-.166,1.12-.3,1.842-.63,3.856C81.083,51.391,76.8,56.585,71.141,58a14.226,14.226,0,0,1-15.97-6.831Zm3.305-1.808a1.808,1.808,0,0,1,1.808-1.808h3.616a1.808,1.808,0,1,1,0,3.616H63.97A1.81,1.81,0,0,1,62.162,49.361ZM44.389,69.184,52,66.648a72.481,72.481,0,0,0,5.146,11.163l.01.018h0a72.5,72.5,0,0,0,4.949,7.558l2.224,3.571H29.688C30.405,80,36.366,71.859,44.389,69.184Z" transform="translate(0)" fill="#2b376f"/>
    <path id="Path_2174" data-name="Path 2174" d="M391.845,418.33a14.442,14.442,0,0,1,4.088,4.964,1.808,1.808,0,0,0,3.235-1.616,18.076,18.076,0,0,0-5.119-6.214,1.808,1.808,0,0,0-2.2,2.866Z" transform="translate(-299.119 -340.037)" fill="#2b376f"/>
  </g>
</svg>
