<svg xmlns="http://www.w3.org/2000/svg" width="75.834" height="75.841" viewBox="0 0 75.834 75.841">
  <g id="tick" transform="translate(0 0)">
    <path id="Path_10139" data-name="Path 10139" d="M81.186,187.367v39.9a7.064,7.064,0,0,1-7.065,7.063H14.669a7.063,7.063,0,0,1-7.064-7.063v-39.9Zm0,0" transform="translate(-6.478 -159.612)" fill="#f9c663"/>
    <path id="Path_10141" data-name="Path 10141" d="M81.182,34.234,52.9,10.685a13.3,13.3,0,0,0-17.016,0L7.6,34.234h0l8.336,6.941L35.884,57.783a13.293,13.293,0,0,0,17.015,0L72.847,41.175Z" transform="translate(-6.475 -6.48)" fill="#fba028"/>
    <path id="Path_10142" data-name="Path 10142" d="M120.788,41.173V62.81L100.84,79.418a13.293,13.293,0,0,1-17.015,0L63.879,62.81V41.173A8.17,8.17,0,0,1,72.05,33h40.57a8.169,8.169,0,0,1,8.169,8.169Zm0,0" transform="translate(-54.416 -28.115)" fill="#fff"/>
    <path id="Path_10144" data-name="Path 10144" d="M313.712,23.807A15.692,15.692,0,1,1,298.019,8.114,15.692,15.692,0,0,1,313.712,23.807Zm0,0" transform="translate(-240.506 -6.912)" fill="#14c4bb"/>
    <path id="Path_10146" data-name="Path 10146" d="M347.572,374.246a1.126,1.126,0,0,0,1.441-1.731l-17.958-14.952a1.126,1.126,0,1,0-1.441,1.731Zm0,0" transform="translate(-280.443 -304.375)" fill="#2b376f"/>
    <path id="Path_10147" data-name="Path 10147" d="M47.428,374.506a1.122,1.122,0,0,0,.72-.26l17.958-14.952a1.126,1.126,0,1,0-1.441-1.731L46.708,372.514a1.126,1.126,0,0,0,.72,1.992Zm0,0" transform="translate(-39.443 -304.375)" fill="#2b376f"/>
    <path id="Path_10148" data-name="Path 10148" d="M137.986,212.878h23.726a1.126,1.126,0,0,0,0-2.253H137.986a1.126,1.126,0,1,0,0,2.253Zm0,0" transform="translate(-116.587 -179.425)" fill="#2b376f"/>
    <path id="Path_10149" data-name="Path 10149" d="M171.021,254.781H137.985a1.126,1.126,0,1,0,0,2.253h33.035a1.126,1.126,0,1,0,0-2.253Zm0,0" transform="translate(-116.586 -217.04)" fill="#2b376f"/>
    <path id="Path_10150" data-name="Path 10150" d="M137.986,124.562H154.5a1.126,1.126,0,0,0,0-2.253H137.986a1.126,1.126,0,1,0,0,2.253Zm0,0" transform="translate(-116.587 -104.191)" fill="#2b376f"/>
    <path id="Path_10151" data-name="Path 10151" d="M211.617,167.591a1.126,1.126,0,0,0,1.127,1.126h8.147a1.126,1.126,0,0,0,0-2.253h-8.147A1.127,1.127,0,0,0,211.617,167.591Zm0,0" transform="translate(-180.27 -141.806)" fill="#2b376f"/>
    <path id="Path_10152" data-name="Path 10152" d="M137.986,168.718h7.319a1.126,1.126,0,1,0,0-2.253h-7.319a1.126,1.126,0,1,0,0,2.253Zm0,0" transform="translate(-116.587 -141.806)" fill="#2b376f"/>
    <path id="Path_10153" data-name="Path 10153" d="M349.448,58.259l-6.036,14.085-5.355-6.376a1.126,1.126,0,1,0-1.724,1.449l6.531,7.777a1.126,1.126,0,0,0,.862.4,1.142,1.142,0,0,0,.165-.012,1.126,1.126,0,0,0,.87-.671l6.757-15.767a1.126,1.126,0,1,0-2.07-.887Zm0,0" transform="translate(-286.287 -49.047)" fill="#2b376f"/>
    <path id="Path_10154" data-name="Path 10154" d="M74.864,26.42l-2.343-1.951a16.8,16.8,0,0,0-.585-16.23A1.126,1.126,0,0,0,70.006,9.4,14.6,14.6,0,1,1,67.4,6.2a1.126,1.126,0,1,0,1.529-1.654A16.8,16.8,0,0,0,47.344,3.507l-.2-.167a14.418,14.418,0,0,0-18.457,0l-.506.422H17.633a9.306,9.306,0,0,0-9.3,9.3v7.3L.716,26.706c-.023.009-.045.019-.068.03A1.125,1.125,0,0,0,0,27.755V58.73a1.126,1.126,0,0,0,2.253,0V30.158L28.688,52.169a14.418,14.418,0,0,0,18.456,0L73.58,30.158V67.651a5.944,5.944,0,0,1-5.938,5.938H8.191a5.944,5.944,0,0,1-5.938-5.938V63.235a1.126,1.126,0,0,0-2.253,0v4.416a8.2,8.2,0,0,0,8.19,8.19H67.643a8.2,8.2,0,0,0,8.19-8.19V27.783c.014-.546-.155-.686-.969-1.364ZM43.784,3.763H32.049A12.169,12.169,0,0,1,43.784,3.763ZM8.336,23.292v9l-5.4-4.5ZM45.7,50.439a12.165,12.165,0,0,1-15.573,0L10.589,34.168V13.058a7.051,7.051,0,0,1,7.044-7.043H44.7A16.818,16.818,0,0,0,60.773,33.4a16.647,16.647,0,0,0,4.473-1.567v2.337ZM67.5,32.292V30.425a16.908,16.908,0,0,0,3.861-3.993l1.589,1.323Zm0,0" transform="translate(0 0)" fill="#2b376f"/>
  </g>
</svg>
