<svg xmlns="http://www.w3.org/2000/svg" width="114.006" height="34.441" viewBox="0 0 114.006 34.441">
  <g id="XBOX_logo_2012" transform="translate(0.189 -0.463)">
    <path id="path6965" d="M595.722,67.009,587.86,56.416l7.183-9.616h-2.7L586.5,54.645,580.66,46.8h-2.681l7.167,9.633L577.3,67.026H580l6.5-8.772,6.521,8.772h2.7" transform="translate(-481.906 -38.668)" fill="#9ea4c4"/>
    <path id="path6967" d="M272.122,67.009l-7.845-10.593,7.167-9.616h-2.681l-5.843,7.845L257.077,46.8h-2.7l7.183,9.633L253.7,67.026h2.7l6.521-8.772,6.5,8.772h2.7" transform="translate(-211.867 -38.668)" fill="#9ea4c4"/>
    <path id="path6969" d="M358.563,64.891h-6.008V57.542h6.008c2.284,0,5,.612,5,3.509C363.561,64.394,360.416,64.891,358.563,64.891ZM352.554,48.9h6.008c1.622,0,4.353.4,4.353,3.211,0,2.119-1.589,3.393-4.353,3.393h-6.008Zm11.52,8.276a5.331,5.331,0,0,0-1.341-.844,4.58,4.58,0,0,0,2.45-4.039c0-1.291-.48-5.5-6.637-5.5h-8.292v8.723H347.49c-.364.463-1.175,1.572-1.49,2.019h4.254v9.468h8.292c4.5,0,7.3-2.268,7.3-5.909a4.865,4.865,0,0,0-1.771-3.923" transform="translate(-288.889 -38.668)" fill="#9ea4c4"/>
    <path id="path6971" d="M481.865,62.985c-4.386,0-7.448-3.459-7.448-8.425s3.062-8.425,7.448-8.425c4.37,0,7.415,3.459,7.415,8.425C489.281,59.509,486.235,62.985,481.865,62.985Zm0-18.985c-5.76,0-9.765,4.337-9.765,10.56s4.005,10.56,9.765,10.56c5.727,0,9.732-4.337,9.732-10.56S487.592,44,481.865,44" transform="translate(-394.118 -36.331)" fill="#9ea4c4"/>
    <g id="g4146" transform="translate(-0.189 0.463)">
      <path id="path4148" d="M16.491,31.207A17.12,17.12,0,0,1,8.857,28.5C6.926,27.233,6.49,26.717,6.49,25.681c0-2.077,2.283-5.717,6.184-9.863,2.218-2.356,5.3-5.117,5.637-5.044.65.145,5.84,5.216,7.783,7.6,3.075,3.779,4.49,6.869,3.771,8.245-.547,1.048-3.931,3.094-6.417,3.878A18.759,18.759,0,0,1,16.491,31.207ZM3.886,23.524a17.926,17.926,0,0,1-2.807-8.4,13.385,13.385,0,0,1,.294-4.2,17.2,17.2,0,0,1,4.18-8.5c.864-.9.941-.922,1.993-.566,1.277.432,2.639,1.373,4.754,3.289l1.235,1.117-.673.83A53.4,53.4,0,0,0,5.186,19.768c-.677,1.832-.948,3.675-.658,4.44C4.723,24.724,4.543,24.533,3.886,23.524Zm28.148.417a8.381,8.381,0,0,0-.512-3.629c-1.013-3.105-4.413-8.888-7.534-12.816L23,6.26l1.063-.979a22.191,22.191,0,0,1,3.392-2.689,6.517,6.517,0,0,1,2.5-.964c.31,0,1.4,1.136,2.287,2.379a17.993,17.993,0,0,1,2.884,6.677,22.32,22.32,0,0,1,.054,6.482,20.6,20.6,0,0,1-1.289,4.077,21.918,21.918,0,0,1-1.763,3.021c-.214.268-.214.268-.1-.325ZM16.774,1.04A21.449,21.449,0,0,0,11.882-.693a9.152,9.152,0,0,0-1.633-.092c-1.013.05-.968,0,.658-.769a16.682,16.682,0,0,1,4.008-1.335A20.51,20.51,0,0,1,21.562-2.9,18.589,18.589,0,0,1,26.756-.96l.359.222-.826-.042a15,15,0,0,0-6.612,1.836,12.877,12.877,0,0,1-1.5.669C18.132,1.717,17.5,1.407,16.774,1.04Z" transform="translate(-1.013 3.163)" fill="#9ea4c4"/>
    </g>
  </g>
</svg>
