<svg xmlns="http://www.w3.org/2000/svg" width="19.264" height="20" viewBox="0 0 19.264 20">
  <g id="Group_4317" data-name="Group 4317" transform="translate(-1713.258 -705)">
    <g id="Group_4318" data-name="Group 4318">
      <path id="Path_34" data-name="Path 34" d="M1103.067,496.242a2.318,2.318,0,0,0-1.833-.89h-2.251v-.429a5.067,5.067,0,0,0-1.587-3.675,5,5,0,0,0-3.77-1.362,5.144,5.144,0,0,0-4.736,5.212v.254h-2.252a2.331,2.331,0,0,0-2.269,2.867l1.682,8.717.021.078a4.224,4.224,0,0,0,4,2.861h7.8a4.219,4.219,0,0,0,4.007-2.888l1.626-8.755A2.319,2.319,0,0,0,1103.067,496.242Zm-13-1.145a3.966,3.966,0,0,1,3.629-4.036,3.87,3.87,0,0,1,4.109,3.862v.429h-7.738Zm12.283,2.89-1.6,8.665a3.043,3.043,0,0,1-2.878,2.046h-7.8a3.046,3.046,0,0,1-2.871-2.027l-1.682-8.707a1.156,1.156,0,0,1,1.121-1.435h2.252v.86a.589.589,0,1,0,1.177,0v-.86h7.738v.86a.589.589,0,0,0,1.177,0v-.86h2.251a1.148,1.148,0,0,1,.908.441A1.169,1.169,0,0,1,1102.349,497.987Z" transform="translate(628.956 215.124)" fill="#9ea4c4"/>
      <path id="Path_10159" data-name="Path 10159" d="M423.254,643.588l-2.741,2.736.009-8.713a.519.519,0,0,0-.518-.519h0a.518.518,0,0,0-.519.518l-.009,8.713-2.735-2.741a.519.519,0,1,0-.734.733l3.62,3.628h0a.519.519,0,0,0,.169.113l.009,0a.517.517,0,0,0,.189.037h0a.522.522,0,0,0,.189-.037l.007,0a.516.516,0,0,0,.17-.112h0l3.627-3.62a.519.519,0,0,0-.733-.734Z" transform="translate(2365.598 297.914) rotate(90)" fill="#9ea4c4"/>
    </g>
  </g>
</svg>
