<svg xmlns="http://www.w3.org/2000/svg" width="19.264" height="20" viewBox="0 0 19.264 20">
  <g id="Group_4314" data-name="Group 4314" transform="translate(-1713.258 -705)">
    <path id="Path_34" data-name="Path 34" d="M1103.067,496.242a2.318,2.318,0,0,0-1.833-.89h-2.251v-.429a5.067,5.067,0,0,0-1.587-3.675,5,5,0,0,0-3.77-1.362,5.144,5.144,0,0,0-4.736,5.212v.254h-2.252a2.331,2.331,0,0,0-2.269,2.867l1.682,8.717.021.078a4.224,4.224,0,0,0,4,2.861h7.8a4.219,4.219,0,0,0,4.007-2.888l1.626-8.755A2.319,2.319,0,0,0,1103.067,496.242Zm-13-1.145a3.966,3.966,0,0,1,3.629-4.036,3.87,3.87,0,0,1,4.109,3.862v.429h-7.738Zm12.283,2.89-1.6,8.665a3.043,3.043,0,0,1-2.878,2.046h-7.8a3.046,3.046,0,0,1-2.871-2.027l-1.682-8.707a1.156,1.156,0,0,1,1.121-1.435h2.252v.86a.589.589,0,1,0,1.177,0v-.86h7.738v.86a.589.589,0,0,0,1.177,0v-.86h2.251a1.148,1.148,0,0,1,.908.441A1.169,1.169,0,0,1,1102.349,497.987Z" transform="translate(628.956 215.124)" fill="#fff"/>
  </g>
</svg>
