<svg xmlns="http://www.w3.org/2000/svg" width="20.796" height="21.589" viewBox="0 0 20.796 21.589">
  <path id="Path_9" data-name="Path 9" d="M1104.557,496.748a2.5,2.5,0,0,0-1.979-.961h-2.431v-.463a5.469,5.469,0,0,0-1.713-3.967,5.4,5.4,0,0,0-4.069-1.471,5.553,5.553,0,0,0-5.112,5.626v.275h-2.431a2.516,2.516,0,0,0-2.45,3.094l1.816,9.41.022.085a4.559,4.559,0,0,0,4.316,3.088h8.416a4.554,4.554,0,0,0,4.326-3.118l1.756-9.45A2.5,2.5,0,0,0,1104.557,496.748Zm-14.033-1.236a4.281,4.281,0,0,1,3.917-4.357,4.177,4.177,0,0,1,4.435,4.169v.463h-8.353Zm13.259,3.119-1.732,9.353a3.284,3.284,0,0,1-3.107,2.209h-8.416a3.288,3.288,0,0,1-3.1-2.188l-1.815-9.4a1.248,1.248,0,0,1,1.21-1.549h2.431v.928a.635.635,0,1,0,1.271,0v-.928h8.353v.928a.635.635,0,1,0,1.271,0v-.928h2.431a1.239,1.239,0,0,1,.98.476A1.262,1.262,0,0,1,1103.783,498.631Z" transform="translate(-1084.302 -489.876)"/>
</svg>
