<svg id="Group_1028" data-name="Group 1028" xmlns="http://www.w3.org/2000/svg" width="19.908" height="19.907" viewBox="0 0 19.908 19.907">
  <path id="Path_64" data-name="Path 64" d="M759.355,736.138a9.953,9.953,0,1,0,9.954,9.954A9.965,9.965,0,0,0,759.355,736.138Zm0,18.518a8.565,8.565,0,1,1,8.565-8.564A8.574,8.574,0,0,1,759.355,754.656Z" transform="translate(-749.401 -736.138)" fill="#9ea4c4"/>
  <path id="Path_65" data-name="Path 65" d="M766.455,744.336a.694.694,0,0,0-.694.694v5.231l-3,3.935a.694.694,0,1,0,1.1.841l3.141-4.121a.7.7,0,0,0,.142-.421V745.03A.694.694,0,0,0,766.455,744.336Z" transform="translate(-756.502 -740.542)" fill="#9ea4c4"/>
</svg>
