<svg xmlns="http://www.w3.org/2000/svg" width="21.632" height="17.942" viewBox="0 0 21.632 17.942">
  <g id="Group_3" data-name="Group 3" transform="translate(-1075.443 -616.333)">
    <path id="Path_43" data-name="Path 43" d="M1106.172,633.132c0-.008-.008-.015-.012-.023a.557.557,0,0,1-.042-.079c0-.011-.007-.022-.011-.034a.561.561,0,0,1-.023-.31.655.655,0,0,1,.023-.077c0-.011.006-.022.011-.033a.553.553,0,0,1,.042-.08c0-.007.007-.015.012-.022a.569.569,0,0,1,.074-.089l3.5-3.5a.591.591,0,0,1,.836.836l-2.489,2.489h9.943a.591.591,0,0,1,0,1.183h-9.943l2.489,2.489a.592.592,0,0,1-.836.837l-3.5-3.5A.581.581,0,0,1,1106.172,633.132Z" transform="translate(-21.551 -7.498)"/>
    <path id="Path_44" data-name="Path 44" d="M1093.152,627.651a.584.584,0,0,0-.63.55,5.6,5.6,0,0,1-.909,3.3,4.565,4.565,0,0,1-2.649,1.144,24.765,24.765,0,0,1-4.473.449,31.556,31.556,0,0,1-4.413-.425,3.111,3.111,0,0,1-2.6-1.655,8.949,8.949,0,0,1-.777-3.448c-.04-.579-.056-1.174-.068-1.686-.031-1.353.047-2.675.127-3.79a5.868,5.868,0,0,1,.664-2.733,2.737,2.737,0,0,1,1.211-.971,6.954,6.954,0,0,1,1.517-.438,23.091,23.091,0,0,1,7.391-.24l.261.032a7.251,7.251,0,0,1,3.347.964,3.916,3.916,0,0,1,1.335,2.841.591.591,0,1,0,1.173-.154,5,5,0,0,0-1.835-3.66,8.265,8.265,0,0,0-3.877-1.165l-.255-.031a24.257,24.257,0,0,0-7.761.25,8.062,8.062,0,0,0-1.778.521,3.936,3.936,0,0,0-1.713,1.4,6.824,6.824,0,0,0-.859,3.3c-.082,1.143-.161,2.5-.129,3.9.012.525.028,1.136.07,1.74a10.007,10.007,0,0,0,.91,3.918,4.338,4.338,0,0,0,3.476,2.275,32.63,32.63,0,0,0,4.579.437h.1a25.464,25.464,0,0,0,4.587-.469,5.588,5.588,0,0,0,3.314-1.512,6.483,6.483,0,0,0,1.214-4.013A.592.592,0,0,0,1093.152,627.651Z" transform="translate(0 0)"/>
  </g>
</svg>
