<svg xmlns="http://www.w3.org/2000/svg" width="24.08" height="21.588" viewBox="0 0 24.08 21.588">
  <path id="Path_6505" data-name="Path 6505" d="M521.315,253.218a.67.67,0,0,1-.409-.14c-.21-.161-5.16-3.967-7.551-6.1l-.179-.161a19.927,19.927,0,0,1-1.668-1.619c-2.458-2.782-3.3-7.793-.375-11.037a7.548,7.548,0,0,1,5.48-2.528,7,7,0,0,1,4.7,1.8,7,7,0,0,1,4.7-1.8,7.546,7.546,0,0,1,5.48,2.528c2.926,3.243,2.083,8.254-.375,11.037a20.1,20.1,0,0,1-1.662,1.614l-.183.164c-2.556,2.284-5.255,4.37-7.558,6.109A.673.673,0,0,1,521.315,253.218ZM516.613,233a6.18,6.18,0,0,0-4.481,2.082c-2.416,2.679-1.682,6.862.385,9.2a18.89,18.89,0,0,0,1.556,1.506l.18.162c1.96,1.752,5.812,4.754,7.066,5.725,2.187-1.658,4.692-3.61,7.06-5.727l.182-.164a18.934,18.934,0,0,0,1.552-1.5c2.066-2.339,2.8-6.522.384-9.2A6.179,6.179,0,0,0,526.018,233a5.7,5.7,0,0,0-4.2,1.846.7.7,0,0,1-.995,0A5.7,5.7,0,0,0,516.613,233Z" transform="translate(-509.276 -231.63)" fill="#7b7da3"/>
</svg>
