<svg id="Group_9" data-name="Group 9" xmlns="http://www.w3.org/2000/svg" width="19.181" height="20.556" viewBox="0 0 19.181 20.556">
  <path id="Path_17" data-name="Path 17" d="M759.516,237.245a.576.576,0,0,0-.054-.049l-5.887-4.7a3.086,3.086,0,0,0-4.309,0l-5.886,4.7c-.019.015-.037.031-.054.048a5.072,5.072,0,0,0-1.495,3.609v6.34a4.988,4.988,0,0,0,4.983,4.982h9.216a4.988,4.988,0,0,0,4.982-4.982v-6.34A5.069,5.069,0,0,0,759.516,237.245Zm.191,9.948a3.683,3.683,0,0,1-3.679,3.679h-9.216a3.684,3.684,0,0,1-3.68-3.679v-6.34a3.775,3.775,0,0,1,1.089-2.662l5.884-4.7a.584.584,0,0,0,.054-.049,1.783,1.783,0,0,1,2.521,0,.576.576,0,0,0,.054.049l5.884,4.7a3.774,3.774,0,0,1,1.088,2.662Z" transform="translate(-741.83 -231.619)" fill="#7b7da3"/>
  <path id="Path_18" data-name="Path 18" d="M762.242,267.374h-5.407a.652.652,0,0,0,0,1.3h5.407a.652.652,0,1,0,0-1.3Z" transform="translate(-749.948 -251.841)" fill="#7b7da3"/>
</svg>
