<svg xmlns="http://www.w3.org/2000/svg" width="25.647" height="25.647" viewBox="0 0 25.647 25.647">
  <g id="_0ae6d682" data-name="0ae6d682" transform="translate(0 -0.063)">
    <path id="Path_3568" data-name="Path 3568" d="M23.272,18.508a4.911,4.911,0,0,1-4.918,4.905L7.264,23.4a4.911,4.911,0,0,1-4.9-4.917l.015-11.09a4.911,4.911,0,0,1,4.917-4.9l11.09.015a4.911,4.911,0,0,1,4.905,4.917l-.015,11.09ZM18.258.077,7.422.063A7.4,7.4,0,0,0,.014,7.452L0,18.288A7.4,7.4,0,0,0,7.389,25.7l10.835.014a7.4,7.4,0,0,0,7.408-7.389l.014-10.835A7.4,7.4,0,0,0,18.258.077Z" transform="translate(0)" fill-rule="evenodd"/>
    <path id="Path_3569" data-name="Path 3569" d="M12.95,18.012a4.3,4.3,0,1,1,4.306-4.294,4.3,4.3,0,0,1-4.306,4.294m.015-10.934A6.633,6.633,0,1,0,19.59,13.72a6.633,6.633,0,0,0-6.625-6.642M20.421,5.42a1.658,1.658,0,1,0,1.656,1.66,1.658,1.658,0,0,0-1.656-1.66" transform="translate(-0.518 -0.439)" fill-rule="evenodd"/>
  </g>
</svg>
