<svg xmlns="http://www.w3.org/2000/svg" width="22.891" height="20.284" viewBox="0 0 22.891 20.284">
  <g id="Group_4313" data-name="Group 4313" transform="translate(-1710.938 -756)">
    <path id="Path_16" data-name="Path 16" d="M520.721,251.914a.642.642,0,0,1-.389-.131c-.2-.151-4.906-3.727-7.178-5.735l-.171-.151a18.835,18.835,0,0,1-1.585-1.521c-2.337-2.614-3.138-7.323-.357-10.37a7.211,7.211,0,0,1,5.21-2.375,6.7,6.7,0,0,1,4.47,1.69,6.7,6.7,0,0,1,4.47-1.69,7.209,7.209,0,0,1,5.21,2.375c2.781,3.048,1.98,7.756-.356,10.371a19,19,0,0,1-1.58,1.517l-.174.154c-2.43,2.147-5,4.106-7.184,5.74A.644.644,0,0,1,520.721,251.914Zm-4.47-19a5.9,5.9,0,0,0-4.259,1.956c-2.3,2.517-1.6,6.447.365,8.645a17.851,17.851,0,0,0,1.48,1.415l.171.152c1.864,1.646,5.524,4.467,6.717,5.379,2.079-1.558,4.46-3.392,6.712-5.381l.173-.154a17.932,17.932,0,0,0,1.476-1.412c1.964-2.2,2.662-6.128.365-8.645a5.9,5.9,0,0,0-4.259-1.956,5.446,5.446,0,0,0-4,1.734.675.675,0,0,1-.946,0A5.447,5.447,0,0,0,516.25,232.917Z" transform="translate(1201.662 524.37)" fill="#9ea4c4"/>
  </g>
</svg>
