<svg xmlns="http://www.w3.org/2000/svg" width="98.421" height="114.57" viewBox="0 0 98.421 114.57">
  <g id="money-bag" transform="translate(-33.9)">
    <g id="Group_4442" data-name="Group 4442" transform="translate(33.9)">
      <path id="Path_10165" data-name="Path 10165" d="M203.678,234.175h-6.55a4.311,4.311,0,1,1,0-8.623h11.528a2.858,2.858,0,1,0,0-5.717h-5.407v-3.978a2.858,2.858,0,1,0-5.717,0v3.978h-.4a10.028,10.028,0,1,0,0,20.056h6.55a4.311,4.311,0,1,1,0,8.623H191.935a2.858,2.858,0,0,0,0,5.717h5.621V258.3a2.858,2.858,0,1,0,5.717,0v-4.073h.548a10.028,10.028,0,0,0-.143-20.056Z" transform="translate(-150.609 -162.265)" fill="#fff"/>
      <path id="Path_10166" data-name="Path 10166" d="M126.652,65.431a81.932,81.932,0,0,0-12.386-19.865A92.277,92.277,0,0,0,98.4,30.488L110.55,7.956a2.82,2.82,0,0,0-.524-3.382C106.882,1.5,103.547,0,99.831,0,96.425,0,93.3,1.286,90.59,2.43c-2.144.881-4.168,1.739-5.812,1.739A3.618,3.618,0,0,1,83.42,3.93C77.751,1.858,73.392.572,69.176.572c-5.335,0-9.885,2.144-14.339,6.717a2.876,2.876,0,0,0-.333,3.573L67.6,30.655A93.821,93.821,0,0,0,51.955,45.566,82.671,82.671,0,0,0,39.569,65.431,67.548,67.548,0,0,0,33.9,92.394,22.212,22.212,0,0,0,56.076,114.57h54.069a22.212,22.212,0,0,0,22.176-22.176A67.548,67.548,0,0,0,126.652,65.431ZM60.6,9.671a12.461,12.461,0,0,1,8.575-3.43c3.382,0,7.193,1.143,12.267,3.025a9.678,9.678,0,0,0,3.311.572c2.787,0,5.455-1.1,8-2.168,2.453-1.024,4.788-2,7.05-2a7.56,7.56,0,0,1,4.6,1.572L92.971,28.488H73.059Zm49.544,99.183H56.076A16.478,16.478,0,0,1,39.617,92.394c0-15.268,5.6-29.75,16.6-43.041A87.436,87.436,0,0,1,72.392,34.2h21.39a85.788,85.788,0,0,1,16.173,15.149c11.028,13.291,16.6,27.749,16.6,43.041A16.407,16.407,0,0,1,110.145,108.853Z" transform="translate(-33.9 0)" fill="#fff"/>
    </g>
  </g>
</svg>
