<svg xmlns="http://www.w3.org/2000/svg" width="15.686" height="15.686" viewBox="0 0 15.686 15.686">
  <path id="Path_36" data-name="Path 36" d="M748.226,367.758a3.108,3.108,0,0,0-4.389,0l-9.335,9.336a.545.545,0,0,0-.15.28l-.894,4.509a.547.547,0,0,0,.536.653.583.583,0,0,0,.106-.01l4.509-.893a.549.549,0,0,0,.28-.15l9.336-9.336A3.107,3.107,0,0,0,748.226,367.758Zm-9.992,12.834-3.545.7.7-3.545,7.738-7.739,2.723,2.962Zm9.218-9.218-.825.825-2.723-2.962.705-.705a2.01,2.01,0,1,1,2.843,2.843Z" transform="translate(-733.448 -366.851)" fill="#14c4bb"/>
</svg>
