<svg xmlns="http://www.w3.org/2000/svg" width="32.002" height="25.447" viewBox="0 0 32.002 25.447">
  <g id="Group_24" data-name="Group 24" transform="translate(-618.313 -253.744)">
    <path id="Path_68" data-name="Path 68" d="M640.571,266a3.054,3.054,0,1,0-3.054,3.054A3.058,3.058,0,0,0,640.571,266Zm-3.054,1.432A1.432,1.432,0,1,1,638.948,266,1.434,1.434,0,0,1,637.516,267.428Z" transform="translate(-7.418 -4.224)"/>
    <path id="Path_69" data-name="Path 69" d="M650.051,270.71a40.4,40.4,0,0,0-.08-9.828,6.789,6.789,0,0,0-3.2-5.2,16.661,16.661,0,0,0-6.688-1.613l-.451-.044a52.471,52.471,0,0,0-13.566.354,16.476,16.476,0,0,0-3.058.721,6.524,6.524,0,0,0-2.928,1.929,8.352,8.352,0,0,0-1.525,4.734,47.752,47.752,0,0,0-.229,5.562c.021.745.05,1.613.123,2.482a12.081,12.081,0,0,0,1.617,5.61c1.554,2.38,4.136,2.941,5.943,3.155a70.558,70.558,0,0,0,8.021.619h.174a55.015,55.015,0,0,0,8.026-.661c2.071-.3,4.192-.764,5.68-2.085a5.532,5.532,0,0,0,1.549-2.4.761.761,0,0,0,.044-.132A14.286,14.286,0,0,0,650.051,270.71Zm-8.056,6.215a55.521,55.521,0,0,1-7.959.644,69.469,69.469,0,0,1-7.838-.607,6.374,6.374,0,0,1-4.432-1.972l4.37-4.37a1.417,1.417,0,0,1,1.928-.015c.37.389,3.632,3.817,4.176,4.308a.811.811,0,0,0,1.086-1.205c-.421-.38-3.093-3.175-4.1-4.235a3,3,0,0,0-4.236,0l-4.08,4.079a12.605,12.605,0,0,1-.845-3.881c-.07-.827-.1-1.668-.118-2.391a46.239,46.239,0,0,1,.223-5.373,6.907,6.907,0,0,1,1.16-3.846,4.978,4.978,0,0,1,2.229-1.435h0a14.955,14.955,0,0,1,2.754-.643,51.816,51.816,0,0,1,7.91-.617,50.757,50.757,0,0,1,5.245.274l.458.045a15.453,15.453,0,0,1,6.056,1.415,5.268,5.268,0,0,1,2.389,4.042,39.043,39.043,0,0,1,.065,9.431c-.043.514-.1,1.017-.171,1.5l-7.821-7.834a2.976,2.976,0,0,0-2.118-.88h0a2.974,2.974,0,0,0-2.118.878l-4.8,4.8a.811.811,0,0,0,1.147,1.147l4.8-4.8a1.365,1.365,0,0,1,.971-.4h0a1.365,1.365,0,0,1,.972.4l8.482,8.5a3.77,3.77,0,0,1-.943,1.348C645.6,276.322,643.692,276.677,641.995,276.924Z"/>
  </g>
</svg>
