<svg xmlns="http://www.w3.org/2000/svg" width="17.561" height="20.381" viewBox="0 0 17.561 20.381">
  <g id="Group_4311" data-name="Group 4311" transform="translate(-1713.258 -855)">
    <g id="Group_5" data-name="Group 5" transform="translate(1713.257 855)">
      <path id="Path_8" data-name="Path 8" d="M304.857,238.543a8.838,8.838,0,0,0-8.413-8.289,8.783,8.783,0,0,0-7.971,13.146c1.032,1.794,4.205,4.89,6,6.575a2.415,2.415,0,0,0,3.3,0c1.934-1.82,5.323-5.186,6.287-7.273A8.83,8.83,0,0,0,304.857,238.543Zm-1.9,3.649c-.641,1.388-2.833,3.9-6.014,6.9a1.193,1.193,0,0,1-1.628,0,37.654,37.654,0,0,1-5.781-6.293,7.56,7.56,0,0,1,6.554-11.323c.1,0,.206,0,.31.006a7.606,7.606,0,0,1,7.241,7.134A7.5,7.5,0,0,1,302.956,242.192Z" transform="translate(-287.309 -230.248)" fill="#9ea4c4"/>
      <path id="Path_9" data-name="Path 9" d="M305.492,244.307a2.544,2.544,0,1,0,2.544,2.544A2.547,2.547,0,0,0,305.492,244.307Zm0,3.867a1.323,1.323,0,1,1,1.323-1.323A1.324,1.324,0,0,1,305.492,248.174Z" transform="translate(-296.58 -238.583)" fill="#9ea4c4"/>
    </g>
  </g>
</svg>
