<svg xmlns="http://www.w3.org/2000/svg" width="20.262" height="20.425" viewBox="0 0 20.262 20.425">
  <g id="Group_4312" data-name="Group 4312" transform="translate(-1712.098 -804)">
    <path id="Path_73" data-name="Path 73" d="M639.68,676.169h-2.229c1.5-.792,2.205-1.806,2.092-3.021a2.148,2.148,0,0,0-1.484-1.833,3.611,3.611,0,0,0-3.427.821,16.069,16.069,0,0,0-2.329,2.261,7.515,7.515,0,0,0-.854,1.189l-.069.112-.114-.215a6.027,6.027,0,0,0-.845-1.283,16.046,16.046,0,0,0-2.328-2.261,3.611,3.611,0,0,0-3.427-.821,2.148,2.148,0,0,0-1.483,1.833c-.123,1.319.718,2.4,2.493,3.219h-3.044a1.609,1.609,0,0,0-1.608,1.608v2.143a1.6,1.6,0,0,0,1.078,1.51l-.006.063a26.265,26.265,0,0,0-.132,3.134c.012.421.029.911.071,1.4a6.76,6.76,0,0,0,.949,3.2,4.588,4.588,0,0,0,3.488,1.813,41.561,41.561,0,0,0,4.623.347h.109a32.537,32.537,0,0,0,4.624-.371,6.37,6.37,0,0,0,3.316-1.191,4.566,4.566,0,0,0,1.27-3.293,23.544,23.544,0,0,0,.018-5.1.539.539,0,0,0-.02-.086,1.6,1.6,0,0,0,.873-1.422v-2.143A1.609,1.609,0,0,0,639.68,676.169Zm.478,1.608v2.143a.478.478,0,0,1-.478.478h-7.942l.021-3.1h7.92A.479.479,0,0,1,640.158,677.777Zm-4.842-4.741a2.513,2.513,0,0,1,2.392-.647,1.019,1.019,0,0,1,.71.864c.076.817-.587,1.54-1.969,2.148a18.284,18.284,0,0,1-2.143.769h-1.89a6.363,6.363,0,0,1,.738-1.029A15.007,15.007,0,0,1,635.317,673.035Zm-6.827,2.957a18.127,18.127,0,0,1-2.212-.79c-1.383-.609-2.045-1.331-1.969-2.148a1.019,1.019,0,0,1,.71-.864,2.511,2.511,0,0,1,2.392.647,15.036,15.036,0,0,1,2.161,2.1,4.918,4.918,0,0,1,.7,1.067l.085.16h-1.587A.564.564,0,0,0,628.49,675.992Zm-6.335,1.784a.479.479,0,0,1,.478-.478h8l-.021,3.1h-7.975a.479.479,0,0,1-.478-.478Zm1.77,10.822a5.741,5.741,0,0,1-.763-2.67c-.039-.458-.055-.929-.067-1.334a25.215,25.215,0,0,1,.128-3c0-.022,0-.044.007-.067H630.6l-.06,8.715c-1.306-.037-2.61-.171-3.938-.324A3.392,3.392,0,0,1,623.925,688.6Zm15.367-2.164a3.615,3.615,0,0,1-.884,2.536,5.442,5.442,0,0,1-2.735.927,33.7,33.7,0,0,1-4,.353l.06-8.723h7.583c0,.016,0,.032,0,.049A22.6,22.6,0,0,1,639.292,686.434Z" transform="translate(1091.072 133.037)" fill="#9ea4c4"/>
  </g>
</svg>
