<svg xmlns="http://www.w3.org/2000/svg" width="19.798" height="21.588" viewBox="0 0 19.798 21.588">
  <g id="Group_966" data-name="Group 966" transform="translate(0 0)">
    <path id="Path_66" data-name="Path 66" d="M872.057,371.563a3.846,3.846,0,0,0,2.452.883,3.95,3.95,0,0,0,.413-.022,3.865,3.865,0,0,0,2.627-1.441,3.981,3.981,0,0,0-.573-5.555,3.874,3.874,0,0,0-5.491.579,3.957,3.957,0,0,0-.851,2.9,4.015,4.015,0,0,0,.186.854l-2.281,1.257a.684.684,0,0,0-.269.922.672.672,0,0,0,.59.355.663.663,0,0,0,.321-.083l2.281-1.257A3.94,3.94,0,0,0,872.057,371.563Zm2.194-5.643a2.546,2.546,0,0,1,.268-.014,2.574,2.574,0,0,1,2.544,2.321h0a2.589,2.589,0,0,1-.558,1.9,2.54,2.54,0,0,1-3.6.38,2.576,2.576,0,0,1-.635-.77v0l0-.006a2.6,2.6,0,0,1,1.987-3.808Z" transform="translate(-858.622 -364.546)" fill="#7b7da3"/>
    <path id="Path_67" data-name="Path 67" d="M876.49,394.745a3.95,3.95,0,1,0,3.9,3.95A3.931,3.931,0,0,0,876.49,394.745Zm0,6.539a2.59,2.59,0,1,1,2.56-2.59A2.577,2.577,0,0,1,876.49,401.284Z" transform="translate(-861.05 -381.056)" fill="#7b7da3"/>
    <path id="Path_68" data-name="Path 68" d="M856.994,387.134l-2.642-1.7a4.011,4.011,0,0,0,.276-1.11,3.959,3.959,0,0,0-.857-2.9,3.87,3.87,0,0,0-2.63-1.434,3.954,3.954,0,0,0-3.423,6.424,3.865,3.865,0,0,0,2.63,1.434,3.774,3.774,0,0,0,.4.021,3.849,3.849,0,0,0,2.459-.888,4.007,4.007,0,0,0,.418-.406l2.646,1.7a.668.668,0,0,0,.928-.21A.685.685,0,0,0,856.994,387.134Zm-6.51-.63a2.589,2.589,0,1,1,2.806-2.314A2.585,2.585,0,0,1,850.485,386.5Z" transform="translate(-846.84 -372.983)" fill="#7b7da3"/>
  </g>
</svg>
