<svg xmlns="http://www.w3.org/2000/svg" width="30.443" height="25.647" viewBox="0 0 30.443 25.647">
  <g id="telegram" transform="translate(-10.891 -23.05)">
    <path id="Path_3570" data-name="Path 3570" d="M75.5,99.6l-27.842,10.85a1.015,1.015,0,0,0,.081,1.92l7.075,2.089,2.64,8.378a1.215,1.215,0,0,0,2.027.485l3.658-3.735,7.177,5.268a1.5,1.5,0,0,0,2.352-.9l4.754-22.727A1.432,1.432,0,0,0,75.5,99.6Zm-3.491,5.044L59.078,116.084a.7.7,0,0,0-.23.443l-.5,4.426a.134.134,0,0,1-.261.025l-2.049-6.6a.7.7,0,0,1,.3-.8l15.272-9.472A.337.337,0,0,1,72.011,104.648Z" transform="translate(-36.122 -76.454)" />
  </g>
</svg>
