<svg xmlns="http://www.w3.org/2000/svg" width="18.065" height="21.274" viewBox="0 0 18.065 21.274">
  <g id="Group_10" data-name="Group 10" transform="translate(-966.607 -363.18)">
    <path id="Path_19" data-name="Path 19" d="M984.038,366.542H979.3a3.991,3.991,0,0,0-7.882,0h-4.176a.634.634,0,1,0,0,1.267h16.8a.634.634,0,1,0,0-1.267Zm-8.68-2.095a2.731,2.731,0,0,1,2.651,2.095h-5.3A2.731,2.731,0,0,1,975.358,364.447Z" transform="translate(0)" fill="#fb3f3f"/>
    <path id="Path_20" data-name="Path 20" d="M984.675,375.929a.633.633,0,0,0-.689.572l-1.05,11.349a.533.533,0,0,0,0,.058,2.642,2.642,0,0,1-2.639,2.639h-5a2.642,2.642,0,0,1-2.639-2.639.533.533,0,0,0,0-.058L971.6,376.5a.633.633,0,0,0-1.261.116l1.047,11.321a3.911,3.911,0,0,0,3.906,3.876h5a3.911,3.911,0,0,0,3.906-3.876l1.047-11.321A.633.633,0,0,0,984.675,375.929Z" transform="translate(-2.153 -7.362)" fill="#fb3f3f"/>
    <path id="Path_21" data-name="Path 21" d="M982.794,387.941v-5.935a.634.634,0,1,0-1.267,0v5.935a.634.634,0,0,0,1.267,0Z" transform="translate(-8.617 -10.507)" fill="#fb3f3f"/>
    <path id="Path_22" data-name="Path 22" d="M993.08,394.111v-5.935a.634.634,0,0,0-1.267,0v5.935a.634.634,0,0,0,1.267,0Z" transform="translate(-14.558 -14.07)" fill="#fb3f3f"/>
  </g>
</svg>
