<svg xmlns="http://www.w3.org/2000/svg" width="25.672" height="25.796" viewBox="0 0 25.672 25.796">
  <path id="Union_3" data-name="Union 3" d="M1.814,19.171a12.782,12.782,0,1,1,11.076,6.4h-.006a12.771,12.771,0,0,1-6.108-1.555L0,25.8Zm5.665,2.763a10.608,10.608,0,0,0,5.407,1.481h0a10.624,10.624,0,1,0-9-4.979l.253.4-1.073,3.92L7.09,21.7Zm7.5-3.192a18.458,18.458,0,0,1-1.821-.673A14.231,14.231,0,0,1,7.7,13.246a6.208,6.208,0,0,1-1.3-3.3A3.58,3.58,0,0,1,7.512,7.278a1.172,1.172,0,0,1,.852-.4c.213,0,.426,0,.612.012h.07c.187,0,.419,0,.649.548.266.639.9,2.211.984,2.371a.589.589,0,0,1,.027.559,2.146,2.146,0,0,1-.319.533c-.159.187-.335.416-.479.56-.159.159-.326.332-.139.651a9.592,9.592,0,0,0,1.776,2.213,8.736,8.736,0,0,0,2.569,1.586c.319.16.505.133.692-.08s.8-.932,1.011-1.252.426-.266.719-.159,1.863.879,2.182,1.038.532.241.612.373a2.66,2.66,0,0,1-.186,1.519,3.291,3.291,0,0,1-2.156,1.519,5.222,5.222,0,0,1-.774.061A4.058,4.058,0,0,1,14.976,18.742Z" transform="translate(0)" fill="#fff"/>
</svg>
